<svg xmlns="http://www.w3.org/2000/svg" xmlns:xlink="http://www.w3.org/1999/xlink" width="30" height="49.244" viewBox="0 0 30 49.244">
  <defs>
    <clipPath id="clip-path">
      <rect id="Rectangle_127" data-name="Rectangle 127" width="30" height="49.244" fill="#ee2c3c"/>
    </clipPath>
  </defs>
  <g id="Frame_5_" data-name="Frame (5)" clip-path="url(#clip-path)">
    <path id="Path_420" data-name="Path 420" d="M29.287.168c-5.675-.9-10.914,1.941-15.134,5.467A42.48,42.48,0,0,0,4.338,17.511C1.832,22.017-.565,27.653.119,32.991A13.438,13.438,0,0,0,8.24,43.44a16.148,16.148,0,0,0,16.312-2.981c.654-.594.426-1.248-.386-1.456a3.6,3.6,0,0,0-2.922.782C14.708,45.352,5.428,40.112,4.13,32.3c-.743-4.487,1.089-9.33,3.07-13.282A39.084,39.084,0,0,1,14.589,8.7c3-3,7.577-7.21,12.361-6.458a3.367,3.367,0,0,0,2.7-.723C30.2.99,30.139.3,29.287.168Z" transform="translate(0 0)" fill="#ee2c3c"/>
    <path id="Path_421" data-name="Path 421" d="M15.418,34.53,20.3,38.512c1.624,1.327,3.209,2.734,4.893,3.982a2.86,2.86,0,0,0,2.753.04,2.563,2.563,0,0,0,1.119-.812c.149-.238.277-.654,0-.862-.258-.188-.515-.366-.773-.545-.862-.584-4.378.426-3.427,1.743.109.149.218.287.337.436l3.873-1.634c-1.545-1.406-3.249-2.664-4.873-3.991L19.32,32.886a2.82,2.82,0,0,0-2.773-.04c-.406.188-1.872,1.07-1.119,1.684Z" transform="translate(-0.146 -0.311)" fill="#ee2c3c"/>
    <path id="Path_422" data-name="Path 422" d="M25.821,42.057A44.617,44.617,0,0,0,14.243,47.94c-.5.357-1.179,1.089-.337,1.515a3.143,3.143,0,0,0,2.743-.366c.862-.555,1.723-1.089,2.6-1.614.466-.277.941-.545,1.416-.8l.713-.386c.119-.059.238-.129.357-.188.2-.1.238-.119.129-.069s-.059.03.129-.069c.119-.059.238-.119.366-.178.248-.119.485-.228.733-.347.456-.208.921-.416,1.387-.614.961-.406,1.941-.782,2.932-1.119.535-.188,1.674-.961,1.08-1.624s-1.981-.277-2.674-.04Z" transform="translate(-0.129 -0.399)" fill="#ee2c3c"/>
  </g>
</svg>
