<svg xmlns="http://www.w3.org/2000/svg" xmlns:xlink="http://www.w3.org/1999/xlink" width="299.768" height="18.175" viewBox="0 0 299.768 18.175">
  <defs>
    <clipPath id="clip-path">
      <path id="Path_2837" data-name="Path 2837" d="M0,0H299.768V18.175H0Z" transform="translate(0 -6.209)" fill="#424143"/>
    </clipPath>
  </defs>
  <g id="Mask_Group_46" data-name="Mask Group 46" transform="translate(0 6.209)" clip-path="url(#clip-path)">
    <path id="Path_513" data-name="Path 513" d="M68.258,2.2q44.683-.474,89.4-.609c29.8-.09,59.334-.06,88.992.083q25.275.124,50.563.346L299.5.474q-57.7.462-115.36,1.151T68.793,3.234q-32.375.519-64.734,1.1C2.794,4.354.9,4.5.183,5.076c-.665.534.568.812,1.589.8q60.1-.711,120.258-.128,60.129.587,120.143,2.489,33.715,1.06,67.361,2.542a7.837,7.837,0,0,0,3.876-.744c.714-.564-.615-.76-1.588-.8Q251.96,6.607,191.872,5.272,131.816,3.941,71.647,3.933q-33.786,0-67.572.4L1.789,5.873Q59.436,4.824,117.116,4.008T232.46,2.6q32.378-.327,64.767-.594c1.264-.008,3.177-.18,3.876-.745s-.584-.79-1.59-.8Q254.783.083,210.1.015c-29.806-.038-59.335.03-88.994.218Q95.833.391,70.544.662c-1.265.015-3.178.18-3.876.745-.665.534.567.812,1.589.8Z" transform="translate(-13.845 -2.441)" fill="#424143"/>
  </g>
</svg>
