<svg xmlns="http://www.w3.org/2000/svg" xmlns:xlink="http://www.w3.org/1999/xlink" width="121" height="28" viewBox="0 0 121 28">
  <defs>
    <clipPath id="clip-path">
      <rect id="Rectangle_357" data-name="Rectangle 357" width="121" height="28" transform="translate(0.009 -0.096)" fill="#fff"/>
    </clipPath>
  </defs>
  <g id="Group_674" data-name="Group 674" transform="translate(-0.009 0.096)" clip-path="url(#clip-path)">
    <path id="Path_602" data-name="Path 602" d="M679.775,26.591v1.614h.049a4.026,4.026,0,0,1,3.682-1.882,3.627,3.627,0,0,1,3.486,2.125h.049a5.167,5.167,0,0,1,1.6-1.482,4.8,4.8,0,0,1,2.495-.646c2.251,0,4.244,1.464,4.244,5.157v7h-3.432V31.966c0-1.871-.675-2.953-2.08-2.953a2.155,2.155,0,0,0-2.061,1.45,3.082,3.082,0,0,0-.145.964v7.057h-3.432V31.7c0-1.589-.649-2.693-2.034-2.693a2.3,2.3,0,0,0-2.088,1.525,2.626,2.626,0,0,0-.16.971V38.48h-3.435V26.591Zm33.321,0v2.243h.094a3.7,3.7,0,0,1,3.44-2.511,3.638,3.638,0,0,1,.778.075v3.114a6.824,6.824,0,0,0-1.017-.086,2.628,2.628,0,0,0-2.787,2.089,4.162,4.162,0,0,0-.076.879v6.089h-3.523V26.591Zm9.1-3.939v3.743h2.977v3.028h-2.977v4.468c0,1.446.391,2.146,1.552,2.146a5.439,5.439,0,0,0,1.3-.146l.046,2.511a8.584,8.584,0,0,1-2.471.343,3.919,3.919,0,0,1-2.783-.993,4.691,4.691,0,0,1-1.01-3.425V22.652ZM674.122,38.48h-3.417V22.652h3.417Zm-9.111-4.246a2.105,2.105,0,0,1-.083.643,2.391,2.391,0,0,1-2.3,1.521,1.518,1.518,0,0,1-1.7-1.571c0-1.632,1.914-2.086,4.088-2.075v1.482Zm3.413-2.846c0-2.7-1.221-5.064-5.356-5.064a10.281,10.281,0,0,0-4.727,1.061l.673,2.164a7.233,7.233,0,0,1,3.447-.911c2.1,0,2.442,1.118,2.442,1.836v.171c-4.575-.007-7.464,1.482-7.464,4.518a3.7,3.7,0,0,0,4.027,3.589,4.7,4.7,0,0,0,3.679-1.536h.077s.524,2.053,3.4,1.268a16.269,16.269,0,0,1-.2-2.864V31.388Zm-28.149-8.735c.353,1.675,1.355,6.539,1.355,6.539.421,2,.808,4.1,1.1,5.753h.052c.285-1.761.733-3.429,1.212-5.493l1.689-6.8h3.739L651,29.627c.413,1.939.744,3.436,1.006,5.239h.049c.285-1.821.657-3.378,1.063-5.371l1.519-6.842h3.587L653.781,38.48c-2.832.582-3.918-.489-4.3-2.189s-1.147-4.943-1.147-4.943a44.061,44.061,0,0,1-.907-4.846h-.054a48.421,48.421,0,0,1-1.093,4.843l-1.863,7.139c-2.893.543-3.9-.261-4.45-2.443-.478-1.868-3.462-13.385-3.462-13.385h3.774Zm64.037,11.582a2.109,2.109,0,0,1-.084.643,2.388,2.388,0,0,1-2.3,1.521,1.518,1.518,0,0,1-1.7-1.571c0-1.632,1.913-2.086,4.088-2.075v1.482Zm3.413-2.846c0-2.7-1.223-5.064-5.357-5.064a10.275,10.275,0,0,0-4.726,1.061l.672,2.164a7.237,7.237,0,0,1,3.448-.911c2.1,0,2.441,1.118,2.441,1.836v.171c-4.57-.007-7.459,1.482-7.459,4.518a3.7,3.7,0,0,0,4.027,3.589,4.7,4.7,0,0,0,3.676-1.536h.08s.524,2.053,3.4,1.268a16.268,16.268,0,0,1-.2-2.864Z" transform="translate(-636.743 -16.932)" fill="#041e42"/>
    <path id="Path_603" data-name="Path 603" d="M730.846,33.569a1.208,1.208,0,0,1-.045,1.518l-6.214,4.292c-.647.369-1.616-.078-2.165-1.014s-.453-1.988.193-2.357l6.88-3.155A1.229,1.229,0,0,1,730.846,33.569Zm8.178,0a1.244,1.244,0,0,1,1.351-.72L747.258,36c.647.369.742,1.417.193,2.357s-1.525,1.38-2.168,1.014l-6.214-4.292A1.209,1.209,0,0,1,739.024,33.569ZM734.933,35.9a1.234,1.234,0,0,1,1.309.794l.669,7.451c0,.738-.874,1.343-1.975,1.343s-1.975-.6-1.975-1.343l.666-7.451A1.233,1.233,0,0,1,734.933,35.9Zm4.136-8.5,6.214-4.3c.643-.369,1.616.075,2.168,1.014s.455,1.988-.193,2.357l-6.883,3.159a1.242,1.242,0,0,1-1.351-.72A1.208,1.208,0,0,1,739.069,27.4Zm-9.574,2.234-6.88-3.159c-.643-.369-.742-1.417-.193-2.357s1.522-1.384,2.165-1.014l6.214,4.3a1.2,1.2,0,0,1,.045,1.514A1.242,1.242,0,0,1,729.495,29.634Zm4.132-3.841-.666-7.451c0-.738.874-1.343,1.975-1.343s1.975.6,1.975,1.343l-.669,7.451a1.473,1.473,0,0,1-2.615,0Zm15.5,13.556v-.186h.171a.089.089,0,0,1,.094.093.091.091,0,0,1-.094.093Zm-.14.339a.038.038,0,0,0,.038.037h.072a.04.04,0,0,0,.037-.037v-.213h.117l.1.224a.039.039,0,0,0,.034.026h.086a.037.037,0,0,0,.034-.052c-.034-.067-.068-.138-.1-.209a.206.206,0,0,0,.143-.209.225.225,0,0,0-.234-.224h-.284a.041.041,0,0,0-.038.037Zm-.306-.309a.556.556,0,1,1,.555.548A.553.553,0,0,1,748.685,39.379Zm-.133,0a.689.689,0,1,0,.688-.679A.683.683,0,0,0,748.553,39.379Z" transform="translate(-628.571 -17.472)" fill="#ffc124"/>
  </g>
</svg>
