<svg xmlns="http://www.w3.org/2000/svg" xmlns:xlink="http://www.w3.org/1999/xlink" width="99" height="30" viewBox="0 0 99 30">
  <defs>
    <clipPath id="clip-path">
      <rect id="Rectangle_353" data-name="Rectangle 353" width="99" height="30" transform="translate(0 -0.035)" fill="#fff"/>
    </clipPath>
  </defs>
  <g id="Group_670" data-name="Group 670" transform="translate(0 0.035)" clip-path="url(#clip-path)">
    <path id="Path_583" data-name="Path 583" d="M28.766,37.742c-.155-.374-.3-.767-.454-1.1l-.715-1.6-.029-.029c-2.127-4.6-4.4-9.279-6.805-13.88l-.1-.192c-.242-.451-.483-.949-.735-1.409a9.131,9.131,0,0,0-1.1-1.687,5.148,5.148,0,0,0-7.926,0,11.666,11.666,0,0,0-1.1,1.687c-.242.5-.483.987-.735,1.438l-.1.192c-2.368,4.6-4.678,9.279-6.805,13.88l-.058.058c-.213.5-.464,1.016-.706,1.572-.155.336-.309.7-.464,1.1a6.474,6.474,0,0,0,.935,6.392A6.6,6.6,0,0,0,7.9,46.618a8.144,8.144,0,0,0,3.074-1.054,15.605,15.605,0,0,0,3.818-3.182,16.466,16.466,0,0,0,3.818,3.192,8.152,8.152,0,0,0,3.886,1.1,6.6,6.6,0,0,0,4.317-1.583,6.494,6.494,0,0,0,2.207-4.006,5.65,5.65,0,0,0-.251-3.355ZM14.885,39.333a15.244,15.244,0,0,1-3.113-5.7,4.943,4.943,0,0,1-.1-1.879,2.968,2.968,0,0,1,.5-1.284,3.284,3.284,0,0,1,2.707-1.352,3.2,3.2,0,0,1,2.707,1.342,2.971,2.971,0,0,1,.493,1.294,4.855,4.855,0,0,1-.1,1.879A15.634,15.634,0,0,1,14.885,39.333ZM27.2,40.752a4.543,4.543,0,0,1-.918,2.168A4.6,4.6,0,0,1,24.4,44.346a4.746,4.746,0,0,1-2.339.307,6.088,6.088,0,0,1-2.339-.805,15.084,15.084,0,0,1-3.509-2.972,17.408,17.408,0,0,0,3.722-6.787,7.455,7.455,0,0,0,.155-2.617,5.274,5.274,0,0,0-.831-2.109,5.195,5.195,0,0,0-4.34-2.186,5.3,5.3,0,0,0-4.35,2.176,4.941,4.941,0,0,0-.822,2.118A6.259,6.259,0,0,0,9.9,34.089,17.785,17.785,0,0,0,13.619,40.9a13.822,13.822,0,0,1-3.509,2.991,6.116,6.116,0,0,1-2.339.8,4.629,4.629,0,0,1-3.38-.9,4.555,4.555,0,0,1-1.762-3,5.013,5.013,0,0,1,.28-2.4c.1-.307.242-.613.4-.978.213-.5.464-1.016.706-1.534l.039-.067c2.088-4.572,4.369-9.241,6.737-13.813l.1-.192c.242-.46.483-.949.735-1.409a6.184,6.184,0,0,1,.87-1.342,3.225,3.225,0,0,1,4.92,0,6.565,6.565,0,0,1,.87,1.342c.242.46.483.959.735,1.409l.1.192c2.359,4.572,4.64,9.241,6.766,13.813l.029.029c.251.5.464,1.054.706,1.534.155.374.309.671.406.987A7.116,7.116,0,0,1,27.2,40.752Zm13.455-1.63a4.869,4.869,0,0,1-3.818-1.754,6.248,6.248,0,0,1-1.547-4.294,6.638,6.638,0,0,1,1.6-4.39A5.141,5.141,0,0,1,40.839,26.9a4.167,4.167,0,0,1,3.577,1.84l.1-1.505h2.823v11.58H44.5l-.1-1.687a4.355,4.355,0,0,1-1.614,1.48A4.4,4.4,0,0,1,40.655,39.122Zm.735-2.761a2.879,2.879,0,0,0,1.518-.431,3.606,3.606,0,0,0,1.044-1.2,3.88,3.88,0,0,0,.367-1.725A3.269,3.269,0,0,0,42.9,30.092a2.872,2.872,0,0,0-3.016,0,3.606,3.606,0,0,0-1.044,1.2,3.816,3.816,0,0,0-.367,1.725,3.269,3.269,0,0,0,1.421,2.914A2.813,2.813,0,0,0,41.39,36.361ZM52.168,24.111a1.672,1.672,0,0,1-.213.892,1.738,1.738,0,0,1-1.537.824,1.852,1.852,0,0,1-.9-.211A1.773,1.773,0,0,1,48.872,25a1.975,1.975,0,0,1,0-1.783,1.53,1.53,0,0,1,.648-.613,1.835,1.835,0,0,1,.9-.221,1.791,1.791,0,0,1,.883.21,1.772,1.772,0,0,1,.664.615A1.9,1.9,0,0,1,52.168,24.111ZM48.881,38.777V27.216h3.074V38.8H48.872Zm11.29-8.531v.038a2.242,2.242,0,0,0-.483-.125,2.528,2.528,0,0,0-.532-.038,2.356,2.356,0,0,0-1.933.767,3.236,3.236,0,0,0-.677,2.214v5.684H53.463V27.207H56.3l.1,1.754a3.487,3.487,0,0,1,1.2-1.419,3.016,3.016,0,0,1,1.75-.479,3.084,3.084,0,0,1,.619.058,1.6,1.6,0,0,1,.213.058Zm1.237,8.531V22.462h3.074v6.231a4.775,4.775,0,0,1,7.424-.067,6.247,6.247,0,0,1,1.547,4.3,6.638,6.638,0,0,1-1.6,4.39A5.141,5.141,0,0,1,67.9,39.1a4.167,4.167,0,0,1-3.577-1.84l-.1,1.505-2.823.029Zm5.945-2.416a2.871,2.871,0,0,0,1.508-.431,3.607,3.607,0,0,0,1.044-1.2,4.214,4.214,0,0,0,0-3.441,3.6,3.6,0,0,0-1.044-1.2,2.872,2.872,0,0,0-3.016,0,3.632,3.632,0,0,0-1.054,1.2,3.815,3.815,0,0,0-.367,1.725,3.269,3.269,0,0,0,1.421,2.914A2.821,2.821,0,0,0,67.354,36.361Zm7.259,2.425V27.207h2.832l.1,1.5A3.837,3.837,0,0,1,80.964,26.9a3.987,3.987,0,0,1,2.2.617,3.939,3.939,0,0,1,1.491,1.721,6.29,6.29,0,0,1,.522,2.636v6.94H82.095V32.278a3.011,3.011,0,0,0-.551-1.908,1.84,1.84,0,0,0-1.508-.709,2.358,2.358,0,0,0-1.228.307,2.4,2.4,0,0,0-.831.891,2.571,2.571,0,0,0-.309,1.294v6.633Zm12.1,0V22.452H89.8v6.231A4.527,4.527,0,0,1,93.4,26.871a4.869,4.869,0,0,1,3.818,1.754,6.265,6.265,0,0,1,1.537,4.294,6.628,6.628,0,0,1-1.6,4.39,5.141,5.141,0,0,1-3.944,1.783,4.167,4.167,0,0,1-3.577-1.84l-.087,1.5Zm5.974-2.425A2.821,2.821,0,0,0,94.2,35.93a3.632,3.632,0,0,0,1.054-1.2,3.88,3.88,0,0,0,.367-1.725A3.269,3.269,0,0,0,94.2,30.092a2.872,2.872,0,0,0-3.016,0,3.606,3.606,0,0,0-1.044,1.2,3.455,3.455,0,0,0-.367,1.725,3.269,3.269,0,0,0,1.421,2.914A2.74,2.74,0,0,0,92.689,36.361Z" transform="translate(-0.502 -16.508)" fill="#ff385c"/>
  </g>
</svg>
