<svg xmlns="http://www.w3.org/2000/svg" xmlns:xlink="http://www.w3.org/1999/xlink" width="88" height="26" viewBox="0 0 88 26">
  <defs>
    <clipPath id="clip-path">
      <rect id="Rectangle_358" data-name="Rectangle 358" width="88" height="26" transform="translate(0.052 -0.157)" fill="#fff"/>
    </clipPath>
  </defs>
  <g id="Group_675" data-name="Group 675" transform="translate(-0.052 0.157)" clip-path="url(#clip-path)">
    <path id="Path_604" data-name="Path 604" d="M870.991,42.693,878.3,34.6l-7.309-8.1H878.7l3.621,3.933,3.486-3.933h7.442l-7.274,8.063,7.374,8.129h-7.743l-3.587-3.965-3.554,3.965Z" transform="translate(-805.303 -17.625)" fill="#f60"/>
    <path id="Path_605" data-name="Path 605" d="M872.243,23.685h-8.278v3.63h8.278v5.47h-8.278V37.8h8.278v5.7H857.881V18h14.362Z" transform="translate(-806.555 -18.437)" fill="#f60"/>
    <path id="Path_606" data-name="Path 606" d="M856.253,18V28.438h-.067a6.18,6.18,0,0,0-4.962-2.048,8.349,8.349,0,0,0-8.037,6.2c-1.2-3.888-4.3-6.271-8.892-6.271a9.068,9.068,0,0,0-8.212,4.34V27.315h-7.71V23.686h8.414V18H811.5V43.506h6.873V32.784h6.85a10.052,10.052,0,0,0-.313,2.521c0,5.32,4.123,9.054,9.385,9.054,4.426,0,7.342-2.048,8.885-5.781h-5.891a2.971,2.971,0,0,1-2.994,1.455,3.512,3.512,0,0,1-3.439-3.471h11.993a8.675,8.675,0,0,0,8.443,7.87,5.9,5.9,0,0,0,4.894-2.577h.067v1.651h6.058V18ZM831.047,32.86a3.305,3.305,0,0,1,3.248-2.679,3.143,3.143,0,0,1,3.28,2.679Zm21.529,6.762c-2.234,0-3.622-2.051-3.622-4.193,0-2.289,1.207-4.491,3.622-4.491,2.5,0,3.5,2.2,3.5,4.491C856.075,37.6,855.019,39.622,852.576,39.622Z" transform="translate(-810.985 -18.437)" fill="#652c8f"/>
  </g>
</svg>
