<svg xmlns="http://www.w3.org/2000/svg" xmlns:xlink="http://www.w3.org/1999/xlink" width="134" height="28" viewBox="0 0 134 28">
  <defs>
    <clipPath id="clip-path">
      <rect id="Rectangle_356" data-name="Rectangle 356" width="134" height="28" transform="translate(-0.304 -0.096)" fill="#fff"/>
    </clipPath>
  </defs>
  <g id="Group_673" data-name="Group 673" transform="translate(0.304 0.096)" clip-path="url(#clip-path)">
    <path id="Path_597" data-name="Path 597" d="M494.444,33.019l-.8,2.252h-.066a16.02,16.02,0,0,0-.775-2.208l-4.27-10.709h-4.183V39.422h2.766V28.89c0-.662,0-1.413-.022-2.34-.023-.464-.067-.817-.089-1.082h.066a10.418,10.418,0,0,0,.4,1.457l5.134,12.453h1.948l5.089-12.564a13.348,13.348,0,0,0,.332-1.347h.067c-.067,1.259-.111,2.385-.133,3.069V39.356h2.943V22.31h-4.027Zm11.2-5.9h2.877V39.356H505.64Zm1.46-5.167a1.726,1.726,0,0,0-1.217.486,1.627,1.627,0,0,0,0,2.363,1.708,1.708,0,0,0,1.217.464,1.766,1.766,0,0,0,1.217-.464,1.552,1.552,0,0,0,.509-1.17,1.635,1.635,0,0,0-.509-1.192A1.614,1.614,0,0,0,507.1,21.956Zm11.618,5.056a8.045,8.045,0,0,0-1.616-.177,6.952,6.952,0,0,0-3.5.861,5.776,5.776,0,0,0-2.3,2.363,7.493,7.493,0,0,0-.8,3.533,6.537,6.537,0,0,0,.775,3.157,5.3,5.3,0,0,0,2.168,2.186,6.4,6.4,0,0,0,3.165.773,6.969,6.969,0,0,0,3.474-.817l.022-.022V36.22l-.111.088a4.953,4.953,0,0,1-1.394.729,4.277,4.277,0,0,1-1.373.265,3.4,3.4,0,0,1-2.7-1.06,4.067,4.067,0,0,1-1-2.892,4.169,4.169,0,0,1,1.018-2.981,3.555,3.555,0,0,1,2.7-1.1,4.716,4.716,0,0,1,2.744.927l.111.088v-2.8l-.022-.022A6.7,6.7,0,0,0,518.718,27.013Zm9.493-.088a3.039,3.039,0,0,0-1.948.684,4.128,4.128,0,0,0-1.107,1.656h-.022V27.123h-2.877V39.356h2.877V33.107a4.209,4.209,0,0,1,.708-2.583,2.22,2.22,0,0,1,1.859-.994,7.081,7.081,0,0,1,.863.11,2.264,2.264,0,0,1,.686.287l.111.088v-2.87l-.067-.022A2.186,2.186,0,0,0,528.211,26.924Zm7.833-.066a6.352,6.352,0,0,0-4.758,1.766,6.57,6.57,0,0,0-1.7,4.813,6.286,6.286,0,0,0,1.682,4.571,6.92,6.92,0,0,0,9.161-.11,6.543,6.543,0,0,0,1.7-4.747,6.38,6.38,0,0,0-1.616-4.615A5.83,5.83,0,0,0,536.044,26.858Zm2.3,9.406a2.9,2.9,0,0,1-2.412,1.016,3.024,3.024,0,0,1-2.478-1.06,4.352,4.352,0,0,1-.885-2.937,4.629,4.629,0,0,1,.885-3,3.046,3.046,0,0,1,2.456-1.06,2.944,2.944,0,0,1,2.389,1.016,4.523,4.523,0,0,1,.885,2.981A5.1,5.1,0,0,1,538.345,36.264Zm10.2-4.063A6.883,6.883,0,0,1,546.8,31.3a1.252,1.252,0,0,1-.332-.927,1.025,1.025,0,0,1,.464-.883,2.134,2.134,0,0,1,1.261-.331,5.732,5.732,0,0,1,1.482.221,3.812,3.812,0,0,1,1.284.6l.111.088V27.366L551,27.344a8.016,8.016,0,0,0-1.3-.375,8.893,8.893,0,0,0-1.417-.132A5.132,5.132,0,0,0,544.9,27.9a3.262,3.262,0,0,0-1.306,2.694,3.512,3.512,0,0,0,.287,1.5,3.36,3.36,0,0,0,.885,1.148,7.727,7.727,0,0,0,1.77.994c.664.287,1.173.508,1.483.684a3.04,3.04,0,0,1,.664.53,1.262,1.262,0,0,1,.176.684c0,.817-.619,1.214-1.881,1.214a4.978,4.978,0,0,1-1.593-.287,6.188,6.188,0,0,1-1.616-.817l-.111-.088v2.8l.067.022a8.59,8.59,0,0,0,1.549.486,9.9,9.9,0,0,0,1.66.2,5.4,5.4,0,0,0,3.563-1.06,3.378,3.378,0,0,0,1.35-2.782,3.094,3.094,0,0,0-.708-2.1A8.976,8.976,0,0,0,548.546,32.2Zm10.887-5.343a6.352,6.352,0,0,0-4.758,1.766,6.662,6.662,0,0,0-1.7,4.813,6.286,6.286,0,0,0,1.682,4.571,6.92,6.92,0,0,0,9.161-.11,6.544,6.544,0,0,0,1.7-4.747,6.38,6.38,0,0,0-1.616-4.615A5.829,5.829,0,0,0,559.433,26.858Zm2.28,9.406A2.9,2.9,0,0,1,559.3,37.28a3,3,0,0,1-2.478-1.06,4.352,4.352,0,0,1-.885-2.937,4.623,4.623,0,0,1,.885-3,3.044,3.044,0,0,1,2.456-1.06,2.974,2.974,0,0,1,2.389,1.016,4.523,4.523,0,0,1,.885,2.981A4.817,4.817,0,0,1,561.713,36.264ZM580.9,29.486V27.123H578V23.5l-.089.022-2.744.817-.066.022v2.76h-4.337V25.578a2.417,2.417,0,0,1,.486-1.612,1.721,1.721,0,0,1,1.35-.53,3.235,3.235,0,0,1,1.284.287l.111.066v-2.5l-.067-.022a5.543,5.543,0,0,0-3.917.309,3.833,3.833,0,0,0-1.571,1.568,4.514,4.514,0,0,0-.575,2.274v1.7h-2.014v2.34h2.014v9.892h2.9v-9.87H575.1v6.293c0,2.583,1.217,3.886,3.651,3.886a7.583,7.583,0,0,0,1.216-.132,4.005,4.005,0,0,0,.908-.287l.022-.022V36.861l-.111.088a1.873,1.873,0,0,1-.6.265,2.025,2.025,0,0,1-.575.088,1.535,1.535,0,0,1-1.261-.464,2.389,2.389,0,0,1-.4-1.568V29.486Z" transform="translate(-447.589 -17.085)" fill="#737373"/>
    <path id="Path_598" data-name="Path 598" d="M450.5,17h13.565V30.535H450.5Z" transform="translate(-450.822 -17.472)" fill="#f25022"/>
    <path id="Path_599" data-name="Path 599" d="M464.174,17h13.565V30.535H464.174Z" transform="translate(-449.516 -17.472)" fill="#7fba00"/>
    <path id="Path_600" data-name="Path 600" d="M450.5,30.645h13.565V44.18H450.5Z" transform="translate(-450.822 -16.169)" fill="#00a4ef"/>
    <path id="Path_601" data-name="Path 601" d="M464.174,30.645h13.565V44.18H464.174Z" transform="translate(-449.516 -16.169)" fill="#ffb900"/>
  </g>
</svg>
