<svg xmlns="http://www.w3.org/2000/svg" xmlns:xlink="http://www.w3.org/1999/xlink" width="92" height="30" viewBox="0 0 92 30">
  <defs>
    <clipPath id="clip-path">
      <rect id="Rectangle_355" data-name="Rectangle 355" width="92" height="30" transform="translate(0.008 -0.035)" fill="#fff"/>
    </clipPath>
  </defs>
  <g id="Group_672" data-name="Group 672" transform="translate(-0.008 0.035)" clip-path="url(#clip-path)">
    <path id="Path_591" data-name="Path 591" d="M339.559,31a7.528,7.528,0,1,1-7.527-7.4A7.359,7.359,0,0,1,339.559,31Zm-3.3,0a4.239,4.239,0,1,0-8.464,0,4.239,4.239,0,1,0,8.464,0Z" transform="translate(-300.544 -15.78)" fill="#ea4335"/>
    <path id="Path_592" data-name="Path 592" d="M354.383,31a7.529,7.529,0,1,1-7.528-7.4A7.359,7.359,0,0,1,354.383,31Zm-3.3,0a4.239,4.239,0,1,0-8.465,0,4.239,4.239,0,1,0,8.465,0Z" transform="translate(-299.129 -15.78)" fill="#fbbc05"/>
    <path id="Path_593" data-name="Path 593" d="M368.53,24.055V37.332c0,5.461-3.269,7.692-7.132,7.692a7.144,7.144,0,0,1-6.652-4.358l2.869-1.177a4.14,4.14,0,0,0,3.78,2.624c2.473,0,4.005-1.5,4.005-4.334V36.715h-.115a5.141,5.141,0,0,1-3.952,1.68,7.4,7.4,0,0,1,0-14.787,5.233,5.233,0,0,1,3.952,1.654h.115v-1.2h3.13Zm-2.9,6.975c0-2.6-1.763-4.508-4.005-4.508a4.3,4.3,0,0,0-4.178,4.508,4.271,4.271,0,0,0,4.178,4.454A4.157,4.157,0,0,0,365.634,31.031Z" transform="translate(-297.713 -15.78)" fill="#4285f4"/>
    <path id="Path_594" data-name="Path 594" d="M372.265,16.913V38.585h-3.214V16.913Z" transform="translate(-296.289 -16.419)" fill="#34a853"/>
    <path id="Path_595" data-name="Path 595" d="M384.389,33.438l2.558,1.68A7.494,7.494,0,0,1,380.7,38.4a7.288,7.288,0,0,1-7.447-7.4,7.075,7.075,0,0,1,7.078-7.4,6.952,6.952,0,0,1,6.422,4.7l.341.84-10.03,4.094a3.824,3.824,0,0,0,3.637,2.241A4.3,4.3,0,0,0,384.389,33.438Zm-7.872-2.661,6.706-2.744a2.913,2.913,0,0,0-2.785-1.567A4.082,4.082,0,0,0,376.517,30.777Z" transform="translate(-295.889 -15.78)" fill="#ea4335"/>
    <path id="Path_596" data-name="Path 596" d="M314.428,29.793V26.656h10.728a10.226,10.226,0,0,1,.159,1.894,10.276,10.276,0,0,1-2.756,7.339,10.736,10.736,0,0,1-8.127,3.221,11.734,11.734,0,0,1-11.822-11.483,11.734,11.734,0,0,1,11.822-11.483,11.187,11.187,0,0,1,7.984,3.164l-2.247,2.214a8.177,8.177,0,0,0-5.742-2.241,8.345,8.345,0,1,0,0,16.691,7.852,7.852,0,0,0,5.884-2.3,6.462,6.462,0,0,0,1.725-3.884Z" transform="translate(-302.635 -16.493)" fill="#4285f4"/>
  </g>
</svg>
