<svg xmlns="http://www.w3.org/2000/svg" xmlns:xlink="http://www.w3.org/1999/xlink" width="92" height="26" viewBox="0 0 92 26">
  <defs>
    <clipPath id="clip-path">
      <rect id="Rectangle_354" data-name="Rectangle 354" width="92" height="26" transform="translate(0.321 -0.157)" fill="#fff"/>
    </clipPath>
  </defs>
  <g id="Group_671" data-name="Group 671" transform="translate(-0.321 0.157)" clip-path="url(#clip-path)">
    <path id="Path_584" data-name="Path 584" d="M164.466,21.973v7.416h-6.758V21.973H154.5v17.7h3.208V32.5h6.758v7.176h3.208v-17.7Z" transform="translate(-154.469 -18.058)" fill="#33475b"/>
    <path id="Path_585" data-name="Path 585" d="M176.625,33.57a2.687,2.687,0,0,1-.777,1.892,2.639,2.639,0,0,1-3.753,0,2.683,2.683,0,0,1-.778-1.892V25.987h-3.043V33.57a5.762,5.762,0,0,0,1.667,4.057,5.659,5.659,0,0,0,8.049,0,5.757,5.757,0,0,0,1.667-4.057V25.987h-3.032Z" transform="translate(-153.153 -17.674)" fill="#33475b"/>
    <path id="Path_586" data-name="Path 586" d="M196.8,27.152a1.891,1.891,0,0,1,2.137-2.047,4.552,4.552,0,0,1,2.869,1.529l1.993-2.367a6.261,6.261,0,0,0-4.666-2.294c-3.3,0-5.688,1.949-5.688,5.179,0,5.994,7.268,4.092,7.268,7.446a2.1,2.1,0,0,1-2.137,1.949c-1.8,0-2.383-.887-3.21-1.825l-2.212,2.318a6.511,6.511,0,0,0,5.251,2.64c3.135,0,5.658-1.972,5.658-5.056,0-6.654-7.269-4.587-7.269-7.472" transform="translate(-150.777 -18.058)" fill="#33475b"/>
    <path id="Path_587" data-name="Path 587" d="M237.993,36.732c-1.8,0-2.309-.784-2.309-1.985V29.432h2.795V26.738h-2.795V23.185l-3.085,1.4V35.408c0,2.769,1.9,4.165,4.495,4.165a6.191,6.191,0,0,0,1.217-.1l.753-2.793c-.34.024-.73.047-1.07.047" transform="translate(-147.009 -17.942)" fill="#33475b"/>
    <path id="Path_588" data-name="Path 588" d="M187.049,26.45a4.653,4.653,0,0,0-3.577,1.447V22.07h-3.048v10.8c0,4.043,2.9,6.813,6.159,6.813a6.7,6.7,0,0,0,6.8-6.615,6.478,6.478,0,0,0-6.33-6.616Zm-.02,10.141a3.437,3.437,0,0,1-1.92-.587,3.482,3.482,0,0,1-1.274-1.564,3.5,3.5,0,0,1,.749-3.8,3.444,3.444,0,0,1,5.321.528,3.506,3.506,0,0,1-.431,4.4A3.443,3.443,0,0,1,187.029,36.592Z" transform="translate(-151.993 -18.048)" fill="#33475b"/>
    <path id="Path_589" data-name="Path 589" d="M217.808,32.539a6.693,6.693,0,0,0-6.8-6.615c-3.258,0-6.158,2.769-6.158,6.813V43.543H207.9V37.708a4.653,4.653,0,0,0,3.575,1.447,6.477,6.477,0,0,0,6.33-6.616Zm-2.886-.038a3.5,3.5,0,0,1-.583,1.937,3.441,3.441,0,0,1-5.321.528,3.5,3.5,0,0,1,.525-5.363,3.436,3.436,0,0,1,4.366.433A3.5,3.5,0,0,1,214.923,32.5Z" transform="translate(-149.659 -17.68)" fill="#33475b"/>
    <path id="Path_590" data-name="Path 590" d="M227.311,26.532V23.446a2.377,2.377,0,0,0,1.36-2.142v-.071a2.389,2.389,0,0,0-.69-1.68,2.349,2.349,0,0,0-1.667-.7h-.071a2.346,2.346,0,0,0-1.666.7,2.385,2.385,0,0,0-.691,1.68V21.3a2.4,2.4,0,0,0,.371,1.27,2.368,2.368,0,0,0,.988.872v3.086a6.653,6.653,0,0,0-3.175,1.409l-8.4-6.592a2.616,2.616,0,0,0-.351-2.156,2.652,2.652,0,0,0-4.816.958,2.7,2.7,0,0,0,.149,1.547,2.67,2.67,0,0,0,.977,1.2,2.64,2.64,0,0,0,1.476.453A2.608,2.608,0,0,0,212.414,23l8.27,6.485a6.794,6.794,0,0,0,.1,7.6l-2.515,2.535a2.143,2.143,0,0,0-.629-.1,2.182,2.182,0,0,0-2.014,1.358,2.212,2.212,0,0,0,.473,2.4,2.172,2.172,0,0,0,3.356-.332,2.208,2.208,0,0,0,.368-1.221,2.146,2.146,0,0,0-.1-.634l2.488-2.508a6.668,6.668,0,0,0,8.473-.238A6.785,6.785,0,0,0,233,32.862a6.83,6.83,0,0,0-.839-2.936,6.745,6.745,0,0,0-2.037-2.264A6.673,6.673,0,0,0,227.311,26.532ZM226.28,36.681a3.424,3.424,0,0,1-1.912-.586,3.474,3.474,0,0,1,1.243-6.287,3.43,3.43,0,0,1,3.533,1.475,3.489,3.489,0,0,1-.427,4.38,3.431,3.431,0,0,1-2.434,1.016" transform="translate(-149.315 -18.437)" fill="#ff7a59"/>
  </g>
</svg>
