<svg id="Component_85_2" data-name="Component 85 – 2" xmlns="http://www.w3.org/2000/svg" width="46" height="46" viewBox="0 0 46 46">
  <rect id="Rectangle_381" data-name="Rectangle 381" width="46" height="46" fill="none"/>
  <g id="Group_1611" data-name="Group 1611" transform="translate(-4030.523 -2919.873)">
    <path id="Path_2265" data-name="Path 2265" d="M4070.192,2936.744a50.351,50.351,0,0,1-.389,6.715,25.316,25.316,0,0,1-2.116,7.546,19.654,19.654,0,0,1-5.483,6.98,26.434,26.434,0,0,1-7.92,4.271,2.8,2.8,0,0,1-1.909-.019,27.192,27.192,0,0,1-7.132-3.68,19.721,19.721,0,0,1-6.678-8.589,27.931,27.931,0,0,1-1.817-7.974,77.664,77.664,0,0,1-.135-9.782,4.209,4.209,0,0,1,3.682-3.948c1.072-.126,2.153-.214,3.212-.415a14.967,14.967,0,0,0,6.5-2.91c.519-.4,1.014-.84,1.5-1.279a2.549,2.549,0,0,1,3.686,0,18.616,18.616,0,0,0,2.906,2.237,15.56,15.56,0,0,0,5.739,2.067c.863.132,1.736.2,2.6.3a4.2,4.2,0,0,1,3.658,3.967c.034,1.5.007,3.005.007,4.508Zm-31.276.021-.138,0c.1,1.715.164,3.432.3,5.144a24.3,24.3,0,0,0,1.62,7.133,17.339,17.339,0,0,0,5.275,7.148,23.318,23.318,0,0,0,7.115,3.819.921.921,0,0,0,.564-.006,24.643,24.643,0,0,0,5.869-2.913,17.593,17.593,0,0,0,6.846-9,27.58,27.58,0,0,0,1.295-6.331,75.577,75.577,0,0,0,.125-9.441,1.782,1.782,0,0,0-1.6-1.731c-1-.137-2-.22-3-.38a17.021,17.021,0,0,1-7.2-2.915c-.812-.574-1.556-1.248-2.314-1.894-.237-.2-.41-.217-.631,0-.241.239-.5.457-.757.681a17.4,17.4,0,0,1-7.312,3.828,22.723,22.723,0,0,1-4.052.622,1.915,1.915,0,0,0-2.007,2.1C4038.907,2934.007,4038.916,2935.386,4038.916,2936.765Z" transform="translate(0 0)" fill="#ee2c3c"/>
    <path id="Path_2266" data-name="Path 2266" d="M4159.523,3103.228a9.851,9.851,0,1,1,9.844-9.857A9.849,9.849,0,0,1,4159.523,3103.228Zm-.019-2.325a7.529,7.529,0,1,0-7.522-7.536A7.544,7.544,0,0,0,4159.5,3100.9Z" transform="translate(-106.152 -150.729)" fill="#ee2c3c"/>
    <path id="Path_2267" data-name="Path 2267" d="M4231.893,3192.848c.1-.09.179-.163.257-.241q2.108-2.1,4.212-4.212a1.212,1.212,0,0,1,1.163-.417,1.148,1.148,0,0,1,.611,1.911c-.516.559-1.068,1.083-1.606,1.622q-1.853,1.856-3.709,3.71a1.173,1.173,0,0,1-1.838.016q-1-.988-1.982-1.99a1.155,1.155,0,0,1,1.645-1.621c.341.329.672.667,1.008,1C4231.726,3192.7,4231.8,3192.762,4231.893,3192.848Z" transform="translate(-180.278 -248.704)" fill="#ee2c3c"/>
  </g>
</svg>
