<svg id="Component_87_3" data-name="Component 87 – 3" xmlns="http://www.w3.org/2000/svg" width="46" height="46" viewBox="0 0 46 46">
  <rect id="Rectangle_383" data-name="Rectangle 383" width="46" height="46" fill="none"/>
  <g id="Group_1612" data-name="Group 1612" transform="translate(3.52 4)">
    <path id="Path_2268" data-name="Path 2268" d="M6706.461,2165.469v2.208h.321c1.147,0,2.294.01,3.44,0a1.179,1.179,0,0,1,1.2.625,1.161,1.161,0,0,1-.216,1.329,1.481,1.481,0,0,0-.125,1.708,1.524,1.524,0,0,0,2.809-.419,1.572,1.572,0,0,0-.361-1.393,1.1,1.1,0,0,1,.305-1.692,1.266,1.266,0,0,1,.568-.147q2.558-.016,5.117,0a1.123,1.123,0,0,1,1.142,1.226q0,4.848,0,9.694c0,.848,0,1.7,0,2.543a2.891,2.891,0,0,1-3.006,2.992q-12.327,0-24.654,0a2.892,2.892,0,0,1-3.011-3.017q0-12.312,0-24.624a2.89,2.89,0,0,1,3.027-3.031q6.073-.006,12.147,0a1.15,1.15,0,0,1,1.284,1.3q0,1.5,0,2.992c0,.067.013.135.023.229a3.792,3.792,0,0,1,3.5,1.3,3.658,3.658,0,0,1,.893,2.713A3.829,3.829,0,0,1,6706.461,2165.469Zm9.686,4.477a3.818,3.818,0,0,1-3.367,4.378,3.644,3.644,0,0,1-2.665-.761,3.806,3.806,0,0,1-1.462-3.623h-2.208v.337c0,1.147-.008,2.293,0,3.44a1.167,1.167,0,0,1-.64,1.186,1.141,1.141,0,0,1-1.3-.216,1.429,1.429,0,0,0-1.175-.324,1.527,1.527,0,0,0-.581,2.816,1.511,1.511,0,0,0,1.76-.118,1.138,1.138,0,0,1,1.3-.208,1.159,1.159,0,0,1,.634,1.159c-.01,1.177,0,2.353,0,3.53v.348h11.132c.61,0,.835-.223.835-.825q0-5.4,0-10.8v-.32Zm-11.963-2.283c.006-.111.015-.19.015-.269q0-1.81,0-3.62a1.129,1.129,0,0,1,1.878-.905,1.509,1.509,0,0,0,1.251.362,1.527,1.527,0,0,0,.572-2.8,1.491,1.491,0,0,0-1.76.1,1.151,1.151,0,0,1-1.328.207,1.166,1.166,0,0,1-.617-1.17c.009-1.167,0-2.333,0-3.5,0-.114-.013-.228-.021-.359h-11.07c-.668,0-.875.206-.875.875q0,5.37,0,10.739v.331h2.262a3.831,3.831,0,0,1,3.469-4.389,3.654,3.654,0,0,1,2.738.9,3.781,3.781,0,0,1,1.283,3.494Zm-.013,4.468v-2.208h-.384c-1.137,0-2.273-.006-3.41,0a1.145,1.145,0,0,1-.945-1.94,1.5,1.5,0,0,0-.154-2.081,1.532,1.532,0,0,0-2.069,0,1.515,1.515,0,0,0-.149,2.083,1.142,1.142,0,0,1,.209,1.3,1.16,1.16,0,0,1-1.16.634c-1.167-.008-2.333,0-3.5,0h-.362c-.007.142-.016.24-.016.337q0,5.4,0,10.8c0,.607.224.83.83.83h10.8c.1,0,.21-.011.314-.017v-2.235a3.8,3.8,0,1,1,0-7.506Z" transform="translate(-6689.985 -2145.832)" fill="#ee2c3c"/>
    <path id="Path_2269" data-name="Path 2269" d="M7059.421,2042.418h-.345c-.967,0-1.935,0-2.9,0a1.132,1.132,0,0,1-1.218-1.21c0-1.635,0-3.271,0-4.906a1.136,1.136,0,0,1,1.906-.919,1.527,1.527,0,1,0,.036-2.355,1.181,1.181,0,0,1-1.134.287,1.091,1.091,0,0,1-.8-1.041q-.013-2.617,0-5.236a1.1,1.1,0,0,1,1.106-1.075c4.188,0,8.377-.01,12.565,0a2.859,2.859,0,0,1,2.778,2.849c.011,2.7,0,5.405,0,8.108q0,2.139,0,4.278a1.132,1.132,0,0,1-1.213,1.215c-.987,0-1.975,0-2.962,0h-.324a3.8,3.8,0,1,1-7.494,0Zm-2.194-2.246h.386c1.147,0,2.294,0,3.44,0a1.139,1.139,0,0,1,.932,1.916,1.5,1.5,0,0,0,.139,2.1,1.525,1.525,0,0,0,2.215-2.085,1.139,1.139,0,0,1-.208-1.3,1.161,1.161,0,0,1,1.16-.634c1.167.008,2.333,0,3.5,0h.362c.007-.142.015-.24.015-.337q0-5.4,0-10.8c0-.606-.223-.83-.831-.83q-5.4,0-10.8,0c-.105,0-.21.011-.313.017v2.235a3.8,3.8,0,1,1,0,7.506Z" transform="translate(-7033.111 -2025.957)" fill="#ee2c3c"/>
  </g>
</svg>
