<svg id="Component_86_3" data-name="Component 86 – 3" xmlns="http://www.w3.org/2000/svg" width="46" height="46" viewBox="0 0 46 46">
  <rect id="Rectangle_382" data-name="Rectangle 382" width="46" height="46" fill="none"/>
  <g id="Group_1613" data-name="Group 1613" transform="translate(5 5)">
    <path id="Path_2270" data-name="Path 2270" d="M7213.74,3076.979q2.025,0,4.049,0a1.68,1.68,0,0,1,1.8,1.809q0,4.049,0,8.1a1.67,1.67,0,0,1-1.793,1.81q-4.064.01-8.129,0a1.66,1.66,0,0,1-1.794-1.805c0-.669-.013-1.339,0-2.009.006-.276-.059-.377-.362-.374-1.841.015-3.682.012-5.524,0a1.666,1.666,0,0,1-1.614-1.291,1.626,1.626,0,0,1,.881-1.863,2.4,2.4,0,0,1,.939-.19c1.768-.018,3.536-.014,5.3,0,.28,0,.386-.067.376-.365-.021-.679-.012-1.36-.005-2.04a1.668,1.668,0,0,1,1.791-1.781Q7211.7,3076.976,7213.74,3076.979Zm2.491,3.382a1.926,1.926,0,0,0-.2-.024c-1.516,0-3.033,0-4.549-.006-.267,0-.275.138-.274.335,0,1.444.008,2.887,0,4.33,0,.269.071.366.353.364q2.165-.018,4.33,0c.288,0,.35-.1.347-.363-.013-1.056-.005-2.113-.005-3.169Z" transform="translate(-7183.59 -3076.118)" fill="#ee2c3c"/>
    <path id="Path_2271" data-name="Path 2271" d="M6952.84,3462.059c-1.36,0-2.72,0-4.08,0a1.677,1.677,0,0,1-1.782-1.792q0-4.065,0-8.129a1.662,1.662,0,0,1,1.776-1.794q4.08-.01,8.16,0a1.656,1.656,0,0,1,1.78,1.787c.006.638,0,1.276,0,1.915,0,.552-.029.477.463.478,1.811,0,3.62,0,5.431,0a1.645,1.645,0,0,1,1.547,1.123,1.674,1.674,0,0,1-.544,1.864,1.816,1.816,0,0,1-1.174.366q-2.653,0-5.3,0c-.417,0-.418,0-.418.4,0,.659,0,1.318,0,1.977a1.673,1.673,0,0,1-1.806,1.8Q6954.864,3462.061,6952.84,3462.059Zm2.5-3.378c.006-.124.016-.226.016-.328,0-1.433-.006-2.865.006-4.3,0-.287-.082-.379-.373-.376q-2.133.019-4.267,0c-.3,0-.4.074-.392.382.016,1.433.006,2.866.007,4.3,0,.1.011.2.018.322Z" transform="translate(-6946.143 -3426.036)" fill="#ee2c3c"/>
    <path id="Path_2272" data-name="Path 2272" d="M6938.727,3080.056c0-1.109,0-2.218,0-3.326a.3.3,0,0,0-.261-.35,6.7,6.7,0,1,1,3.946-.021c-.283.087-.34.211-.338.479q.015,3.279,0,6.559a1.672,1.672,0,0,1-2.593,1.39,1.649,1.649,0,0,1-.757-1.467C6938.725,3082.232,6938.727,3081.144,6938.727,3080.056Zm5.017-10.054a3.342,3.342,0,1,0-3.354,3.339A3.33,3.33,0,0,0,6943.744,3070Z" transform="translate(-6933.712 -3063.28)" fill="#ee2c3c"/>
    <path id="Path_2273" data-name="Path 2273" d="M7315.379,3334.39c0,.827.008,1.653,0,2.479a.339.339,0,0,0,.295.389,6.705,6.705,0,1,1-3.88-.012c.212-.064.238-.177.237-.363,0-1.664-.011-3.327,0-4.99a1.568,1.568,0,0,1,1-1.507,1.6,1.6,0,0,1,1.763.255,1.682,1.682,0,0,1,.592,1.363Q7315.378,3333.2,7315.379,3334.39Zm-5.02,9.238a3.343,3.343,0,1,0,3.358-3.339A3.337,3.337,0,0,0,7310.359,3343.628Z" transform="translate(-7283.563 -3313.469)" fill="#ee2c3c"/>
  </g>
</svg>
