<svg id="Component_83_2" data-name="Component 83 – 2" xmlns="http://www.w3.org/2000/svg" width="46" height="46" viewBox="0 0 46 46">
  <rect id="Rectangle_379" data-name="Rectangle 379" width="46" height="46" fill="none"/>
  <g id="Group_1610" data-name="Group 1610" transform="translate(-2083.424 -1127.299)">
    <path id="Path_2233" data-name="Path 2233" d="M2122.762,1144.372h-31.708c-.416,0-.417,0-.417.419q0,9.156,0,18.312a3.821,3.821,0,0,0,2.044,3.6,3.383,3.383,0,0,0,1.673.378c1.435,0,2.87,0,4.3,0a2.208,2.208,0,0,1,.692.1,1.222,1.222,0,0,1,.823,1.307,1.244,1.244,0,0,1-.964,1.11,2.583,2.583,0,0,1-.573.055c-1.392,0-2.785-.024-4.176.008a6.236,6.236,0,0,1-6.394-6.207q-.005-.193-.005-.386,0-12.256,0-24.513a6.61,6.61,0,0,1,1.474-4.38,5.959,5.959,0,0,1,4.81-2.233h19.146c1.842,0,3.684-.009,5.525,0a6.857,6.857,0,0,1,6.472,4.693,6.522,6.522,0,0,1,.272,1.831c.025,3.512,0,7.025.021,10.537a1.515,1.515,0,1,1-3.029-.015c.037-1.4.009-2.806.009-4.208C2122.762,1144.654,2122.762,1144.528,2122.762,1144.372Zm-.026-2.572c.011-.094.024-.146.024-.2,0-1.156.025-2.314-.018-3.469a3.759,3.759,0,0,0-3.747-3.613q-12.35-.015-24.7,0a3.177,3.177,0,0,0-1.577.373,3.859,3.859,0,0,0-2.077,3.521c-.019.974,0,1.949,0,2.923,0,.466,0,.466.467.466h31.632Z" fill="#ee2c3c"/>
    <path id="Path_2234" data-name="Path 2234" d="M2275.206,1438.831a12.706,12.706,0,0,1-11.364-6.5,33.6,33.6,0,0,1-1.5-3.114.9.9,0,0,1,.019-.821,14.008,14.008,0,0,1,11.106-8.535,13.73,13.73,0,0,1,12.526,4.5,13.183,13.183,0,0,1,2.66,4.173.817.817,0,0,1,.03.519c-1.641,4.965-4.88,8.24-10.064,9.393-1.111.247-2.262.314-3.4.463Zm.372-2.66c.342-.018.685-.032,1.026-.055.16-.011.319-.034.478-.059a11.421,11.421,0,0,0,8.856-6.468.664.664,0,0,0,.006-.662,11.262,11.262,0,0,0-9.233-6.515,11.405,11.405,0,0,0-11.505,6.519.646.646,0,0,0-.005.632A11.492,11.492,0,0,0,2275.578,1436.17Z" transform="translate(-162.995 -269.258)" fill="#ee2c3c"/>
    <path id="Path_2235" data-name="Path 2235" d="M2385.814,1215.017a1.508,1.508,0,1,1,1.586-1.513A1.491,1.491,0,0,1,2385.814,1215.017Z" transform="translate(-277.125 -74.924)" fill="#ee2c3c"/>
    <path id="Path_2236" data-name="Path 2236" d="M2460.23,1215.017a1.509,1.509,0,1,1,.022-3.011,1.507,1.507,0,1,1-.022,3.011Z" transform="translate(-346.766 -74.924)" fill="#ee2c3c"/>
    <path id="Path_2237" data-name="Path 2237" d="M2530.448,1214.859a1.482,1.482,0,0,1-1.575-1.52,1.591,1.591,0,0,1,3.178.027A1.484,1.484,0,0,1,2530.448,1214.859Z" transform="translate(-412.489 -74.767)" fill="#ee2c3c"/>
    <path id="Path_2238" data-name="Path 2238" d="M2394.666,1498.745a5.152,5.152,0,1,1,5.153-5.152A5.167,5.167,0,0,1,2394.666,1498.745Zm2.492-5.162a2.492,2.492,0,1,0-2.483,2.5A2.5,2.5,0,0,0,2397.158,1493.584Z" transform="translate(-282.085 -333.599)" fill="#ee2c3c"/>
  </g>
</svg>
