<svg xmlns="http://www.w3.org/2000/svg" xmlns:xlink="http://www.w3.org/1999/xlink" width="249.693" height="12.847" viewBox="0 0 249.693 12.847">
  <defs>
    <clipPath id="clip-path">
      <rect id="Rectangle_4" data-name="Rectangle 4" width="249.693" height="12.847" fill="#fff"/>
    </clipPath>
  </defs>
  <g id="Frame_3_" data-name="Frame (3)" clip-path="url(#clip-path)">
    <path id="Path_7" data-name="Path 7" d="M54.347,2.615q35.577-.564,71.181-.726c23.731-.108,47.243-.072,70.857.1q20.124.148,40.259.412l1.82-1.837q-45.939.551-91.852,1.371T54.773,3.851Q29,4.47,3.231,5.159c-1.007.027-2.518.206-3.086.887C-.385,6.682.6,7.014,1.41,7q47.856-.847,95.751-.152,47.875.7,95.66,2.965,26.844,1.263,53.634,3.028a4.542,4.542,0,0,0,3.086-.887c.568-.672-.49-.9-1.264-.95Q200.613,7.87,152.77,6.279,104.953,4.694,57.045,4.685q-26.9,0-53.8.475L1.423,7q45.9-1.25,91.826-2.222T185.087,3.1q25.78-.39,51.569-.708c1.007-.009,2.53-.215,3.086-.887s-.465-.941-1.266-.95Q202.861.1,167.283.017c-23.732-.045-47.243.036-70.858.26Q76.3.465,56.167.787c-1.007.018-2.531.215-3.086.887-.529.636.452.968,1.265.95Z" transform="translate(-0.003 0.001)" fill="#fff"/>
  </g>
</svg>
