<svg xmlns="http://www.w3.org/2000/svg" xmlns:xlink="http://www.w3.org/1999/xlink" width="24.483" height="24.775" viewBox="0 0 24.483 24.775">
  <defs>
    <clipPath id="clip-path">
      <rect id="Rectangle_134" data-name="Rectangle 134" width="21.08" height="21.44" fill="#ee2c3c"/>
    </clipPath>
  </defs>
  <g id="Frame_6_" data-name="Frame (6)" transform="matrix(-0.985, 0.174, -0.174, -0.985, 24.483, 21.114)" clip-path="url(#clip-path)">
    <path id="Path_426" data-name="Path 426" d="M4.04,9.36Q6.6,5.28,9.13,1.18C9.62.4,8.72,0,8.04,0A3.314,3.314,0,0,0,5.38,1.1Q2.74,5.18.15,9.27c-.51.81.45,1.23,1.13,1.23A3.429,3.429,0,0,0,4.04,9.36Z" fill="#ee2c3c"/>
    <path id="Path_427" data-name="Path 427" d="M8.91,13.37q4.08-1.83,8.14-3.69c.5-.23,1.67-.93,1.06-1.6s-1.99-.32-2.64-.04c-2.74,1.2-5.47,2.41-8.21,3.63a2.565,2.565,0,0,0-1.11.81.677.677,0,0,0,0,.85c.66.63,2.02.37,2.74.04Z" fill="#ee2c3c"/>
    <path id="Path_428" data-name="Path 428" d="M12.34,21.42c2.15-.22,4.31-.44,6.46-.67a3.813,3.813,0,0,0,1.51-.51c.26-.16.71-.5.76-.84.12-.9-1.15-.91-1.73-.86q-3.225.285-6.45.62a3.719,3.719,0,0,0-1.55.53c-.26.16-.73.51-.78.87-.12.92,1.18.94,1.77.88Z" fill="#ee2c3c"/>
  </g>
</svg>
