<svg xmlns="http://www.w3.org/2000/svg" xmlns:xlink="http://www.w3.org/1999/xlink" viewBox="57 54 42 41">
  <defs>
    <linearGradient id="linear-gradient" x1="0.1" y1="0.095" x2="0.925" y2="0.918" gradientUnits="objectBoundingBox">
      <stop offset="0" stop-color="#ff6976"/>
      <stop offset="1" stop-color="#ee2c3c"/>
    </linearGradient>
    <filter id="Rectangle_129" x="0" y="0" width="156" height="155" filterUnits="userSpaceOnUse">
      <feOffset dy="3" input="SourceAlpha"/>
      <feGaussianBlur stdDeviation="19" result="blur"/>
      <feFlood flood-color="#737373" flood-opacity="0.051"/>
      <feComposite operator="in" in2="blur"/>
      <feComposite in="SourceGraphic"/>
    </filter>
  </defs>
  <g id="Group_2443" data-name="Group 2443" transform="translate(-1526 -549.5)">
    <g transform="matrix(1, 0, 0, 1, 1526, 549.5)" filter="url(#Rectangle_129)">
      <rect id="Rectangle_129-2" data-name="Rectangle 129" width="42" height="41" rx="10" transform="translate(57 54)" fill="url(#linear-gradient)"/>
    </g>
    <g id="Group_1601" data-name="Group 1601" transform="translate(-5339.711 -2448.78)">
      <path id="Path_2270" data-name="Path 2270" d="M7207.432,3076.979h2.145a.889.889,0,0,1,.951.958q0,2.144,0,4.288a.884.884,0,0,1-.949.958q-2.153.005-4.3,0a.879.879,0,0,1-.95-.956c0-.354-.007-.709,0-1.064,0-.146-.031-.2-.191-.2-.976.008-1.95.006-2.926,0a.882.882,0,0,1-.854-.684.861.861,0,0,1,.467-.986,1.276,1.276,0,0,1,.5-.1c.937-.009,1.873-.007,2.809,0,.148,0,.2-.035.2-.193-.012-.36-.007-.72,0-1.08a.883.883,0,0,1,.948-.943Zm1.319,1.791c-.052-.006-.078-.013-.1-.013-.8,0-1.606,0-2.409,0-.142,0-.146.073-.146.178,0,.765,0,1.529,0,2.293,0,.142.038.194.187.193q1.146-.01,2.293,0c.152,0,.185-.052.184-.192-.007-.559,0-1.119,0-1.678Z" transform="translate(-257.754 -13.243)" fill="#fff"/>
      <path id="Path_2271" data-name="Path 2271" d="M6950.081,3456.545c-.72,0-1.44,0-2.16,0a.888.888,0,0,1-.944-.949q0-2.153,0-4.3a.88.88,0,0,1,.94-.95q2.161-.005,4.321,0a.877.877,0,0,1,.943.946c0,.338,0,.676,0,1.014,0,.292-.016.253.245.253.959,0,1.917,0,2.876,0a.871.871,0,0,1,.819.595.887.887,0,0,1-.288.987.96.96,0,0,1-.622.193H6953.4c-.221,0-.221,0-.221.214,0,.349,0,.7,0,1.047a.886.886,0,0,1-.956.952Zm1.322-1.789c0-.065.008-.12.008-.174,0-.759,0-1.518,0-2.276,0-.152-.043-.2-.2-.2q-1.129.01-2.259,0c-.158,0-.209.039-.208.2.009.759,0,1.517,0,2.276,0,.054.006.108.009.171Z" transform="translate(-12.824 -374.189)" fill="#fff"/>
      <path id="Path_2272" data-name="Path 2272" d="M6936.367,3072.164c0-.587,0-1.174,0-1.761a.161.161,0,0,0-.139-.185,3.548,3.548,0,1,1,2.09-.011c-.149.046-.18.112-.179.253q.008,1.737,0,3.473a.886.886,0,0,1-1.374.736.872.872,0,0,1-.4-.777C6936.367,3073.316,6936.368,3072.74,6936.367,3072.164Zm2.657-5.324a1.77,1.77,0,1,0-1.776,1.768A1.764,1.764,0,0,0,6939.024,3066.839Z" transform="translate(0 0)" fill="#fff"/>
      <path id="Path_2273" data-name="Path 2273" d="M7311.438,3332.433c0,.438,0,.876,0,1.313,0,.121.04.17.156.206a3.551,3.551,0,1,1-2.055-.006c.112-.034.126-.094.125-.192,0-.881-.006-1.761,0-2.643a.831.831,0,0,1,.527-.8.847.847,0,0,1,.934.135.892.892,0,0,1,.313.722Q7311.438,3331.8,7311.438,3332.433Zm-2.659,4.892a1.771,1.771,0,1,0,1.778-1.768A1.767,1.767,0,0,0,7308.779,3337.325Z" transform="translate(-360.878 -258.074)" fill="#fff"/>
    </g>
  </g>
</svg>