<svg xmlns="http://www.w3.org/2000/svg" xmlns:xlink="http://www.w3.org/1999/xlink" width="156" height="155" viewBox="0 0 156 155">
  <defs>
    <linearGradient id="linear-gradient" x1="0.1" y1="0.095" x2="0.925" y2="0.918" gradientUnits="objectBoundingBox">
      <stop offset="0" stop-color="#ff6976"/>
      <stop offset="1" stop-color="#ee2c3c"/>
    </linearGradient>
    <filter id="Rectangle_128" x="0" y="0" width="156" height="155" filterUnits="userSpaceOnUse">
      <feOffset dy="3" input="SourceAlpha"/>
      <feGaussianBlur stdDeviation="19" result="blur"/>
      <feFlood flood-color="#737373" flood-opacity="0.051"/>
      <feComposite operator="in" in2="blur"/>
      <feComposite in="SourceGraphic"/>
    </filter>
  </defs>
  <g id="Group_2438" data-name="Group 2438" transform="translate(-925.719 -301.47)">
    <g transform="matrix(1, 0, 0, 1, 925.72, 301.47)" filter="url(#Rectangle_128)">
      <rect id="Rectangle_128-2" data-name="Rectangle 128" width="42" height="41" rx="10" transform="translate(57 54)" fill="url(#linear-gradient)"/>
    </g>
    <g id="Group_1605" data-name="Group 1605" transform="translate(-1093.832 -765.937)">
      <path id="Path_2233" data-name="Path 2233" d="M2104.6,1137.865h-15.115c-.2,0-.2,0-.2.2q0,4.365,0,8.73a1.822,1.822,0,0,0,.975,1.716,1.613,1.613,0,0,0,.8.18c.684,0,1.368,0,2.052,0a1.054,1.054,0,0,1,.33.046.583.583,0,0,1,.393.623.593.593,0,0,1-.46.529,1.228,1.228,0,0,1-.273.026c-.664,0-1.328-.011-1.991,0a2.973,2.973,0,0,1-3.048-2.959c0-.061,0-.123,0-.184q0-5.843,0-11.686a3.152,3.152,0,0,1,.7-2.088,2.841,2.841,0,0,1,2.293-1.065h9.127c.878,0,1.756,0,2.634,0a3.269,3.269,0,0,1,3.085,2.237,3.1,3.1,0,0,1,.13.873c.012,1.674,0,3.349.01,5.023a.722.722,0,1,1-1.444-.007c.018-.668,0-1.337,0-2.006C2104.6,1138,2104.6,1137.939,2104.6,1137.865Zm-.012-1.226c.005-.045.011-.07.011-.094,0-.551.012-1.1-.008-1.654a1.792,1.792,0,0,0-1.786-1.723q-5.888-.007-11.775,0a1.515,1.515,0,0,0-.752.178,1.84,1.84,0,0,0-.99,1.679c-.009.464,0,.929,0,1.394,0,.222,0,.222.222.222h15.08Z" fill="#fff"/>
      <path id="Path_2234" data-name="Path 2234" d="M2268.425,1428.811a6.057,6.057,0,0,1-5.417-3.1,16.02,16.02,0,0,1-.717-1.485.427.427,0,0,1,.009-.391,6.677,6.677,0,0,1,5.294-4.069,6.545,6.545,0,0,1,5.971,2.147,6.288,6.288,0,0,1,1.268,1.989.39.39,0,0,1,.014.247,6.253,6.253,0,0,1-4.8,4.478c-.53.118-1.079.149-1.619.221Zm.177-1.268c.163-.009.326-.015.489-.026.076-.005.152-.016.228-.028a5.444,5.444,0,0,0,4.221-3.084.317.317,0,0,0,0-.315,5.369,5.369,0,0,0-4.4-3.106,5.437,5.437,0,0,0-5.485,3.108.307.307,0,0,0,0,.3A5.479,5.479,0,0,0,2268.6,1427.543Z" transform="translate(-168.851 -278.933)" fill="#fff"/>
      <path id="Path_2235" data-name="Path 2235" d="M2384.977,1213.441a.719.719,0,1,1,.756-.721A.711.711,0,0,1,2384.977,1213.441Z" transform="translate(-287.083 -77.616)" fill="#fff"/>
      <path id="Path_2236" data-name="Path 2236" d="M2459.4,1213.441a.719.719,0,1,1,.01-1.435.718.718,0,1,1-.01,1.435Z" transform="translate(-359.225 -77.616)" fill="#fff"/>
      <path id="Path_2237" data-name="Path 2237" d="M2529.624,1213.278a.707.707,0,0,1-.751-.725.758.758,0,0,1,1.515.013A.708.708,0,0,1,2529.624,1213.278Z" transform="translate(-427.31 -77.453)" fill="#fff"/>
      <path id="Path_2238" data-name="Path 2238" d="M2391.97,1493.354a2.456,2.456,0,1,1,2.457-2.456A2.463,2.463,0,0,1,2391.97,1493.354Zm1.188-2.461a1.188,1.188,0,1,0-1.184,1.192A1.19,1.19,0,0,0,2393.159,1490.893Z" transform="translate(-292.22 -345.585)" fill="#fff"/>
    </g>
  </g>
</svg>
