<svg xmlns="http://www.w3.org/2000/svg" width="30.854" height="30.862" viewBox="0 0 30.854 30.862">
  <g id="Group_2216" data-name="Group 2216" transform="translate(-4194.801 -633.245)">
    <path id="Path_2718" data-name="Path 2718" d="M4198.085,853.37a6.147,6.147,0,0,1-.44-.884,4.978,4.978,0,0,1-.252-1.217,6.48,6.48,0,0,1,.108-2.036,3.643,3.643,0,0,1,3.515-2.671,3.537,3.537,0,0,1,3.424,2.735,5.306,5.306,0,0,1-.227,3.4,3.5,3.5,0,0,1-2.287,1.957c-.053.016-.107.032-.16.052-.014,0-.024.02-.03.026l.474,1.267a.726.726,0,0,0,.08-.073,1.609,1.609,0,0,1,1.344-.624q6.593.008,13.186,0a1.683,1.683,0,0,1,1.425.711l.479-1.287a2,2,0,0,0-.188-.07,3.629,3.629,0,0,1-2.639-3.369,7.265,7.265,0,0,1,.108-1.99,3.577,3.577,0,0,1,6.537-1.013,3.429,3.429,0,0,1,.536,1.825c0,.569-.016,1.14-.069,1.706a3.041,3.041,0,0,1-.526,1.333l-.135.216a3.755,3.755,0,0,1,1.634.971,3.569,3.569,0,0,1,1.018,2.209c.195,2.168.4,4.335.574,6.5.068.848.074,1.7.081,2.553a1.524,1.524,0,0,1-1.515,1.526c-.755.008-1.51,0-2.266,0h-25.407a1.552,1.552,0,0,1-1.63-1.216,1.221,1.221,0,0,1-.034-.334c.065-1.468.1-2.939.211-4.4.113-1.546.278-3.088.45-4.628a3.541,3.541,0,0,1,2.47-3.119Zm2.392,7.835c-.353.641-.7,1.251-1.024,1.876a.325.325,0,0,0,.291.434,2.535,2.535,0,0,0,.313.008h17.451c1.029,0,2.057,0,3.085,0,.386,0,.537-.257.351-.594-.287-.52-.581-1.037-.873-1.554a1.517,1.517,0,0,0-.1-.139.644.644,0,0,0-.088.056,2.7,2.7,0,0,1-1.943.7c-.892-.008-1.783,0-2.675-.005a2.477,2.477,0,0,1-.643-.077,1.793,1.793,0,0,1,.477-3.519c.667-.008,1.333,0,2,0a.579.579,0,0,0,.6-.447.9.9,0,0,0-.112-.983.736.736,0,0,1-.108-.188.7.7,0,0,0-.743-.444c-3.3.01-6.6.006-9.906.006-1.068,0-2.137,0-3.206.005-.144,0-.354.029-.417.123-.287.426-.736.8-.467,1.431.156.363.272.5.663.5.675,0,1.351-.011,2.024.006a1.8,1.8,0,0,1-.134,3.594c-.973.01-1.945.007-2.917,0a3.468,3.468,0,0,1-.667-.084A2.626,2.626,0,0,1,4200.477,861.206Zm21.577,4.9c.615,0,1.272,0,1.93,0,.453,0,.658-.2.645-.644-.025-.867-.033-1.737-.1-2.6-.167-2.073-.362-4.145-.553-6.216a2.482,2.482,0,0,0-1.216-1.977,2.171,2.171,0,0,0-3.39,1.264c-.194.778-.457,1.539-.689,2.307a1.537,1.537,0,0,1-1.587,1.179c-.651,0-1.3,0-1.953,0a.771.771,0,1,0,.049,1.538c.916.008,1.832,0,2.748,0a1.6,1.6,0,0,0,1.694-1.123q.442-1.042.9-2.079a.8.8,0,0,1,.187-.273.487.487,0,0,1,.623-.011.514.514,0,0,1,.149.649q-.4.944-.81,1.88a.371.371,0,0,0,.018.379c.373.647.729,1.3,1.1,1.95a1.91,1.91,0,0,1,.263,1.01C4222.046,864.253,4222.054,865.166,4222.054,866.1Zm-23.6,0c-.019-.212-.047-.386-.048-.56,0-.771-.02-1.543.007-2.313a1.952,1.952,0,0,1,.211-.8c.349-.677.731-1.338,1.116-2a.469.469,0,0,0,.02-.488c-.265-.585-.514-1.177-.759-1.77a.875.875,0,0,1-.076-.392.485.485,0,0,1,.434-.421.511.511,0,0,1,.552.336c.327.75.646,1.5.97,2.256a1.529,1.529,0,0,0,1.48,1c.972.012,1.944.008,2.916,0a.773.773,0,1,0-.011-1.539c-.643,0-1.285,0-1.927,0a1.532,1.532,0,0,1-1.555-1.157c-.256-.853-.5-1.709-.773-2.557a1.933,1.933,0,0,0-1.393-1.347,2.555,2.555,0,0,0-3.124,2.192q-.312,3.224-.574,6.453c-.067.832-.069,1.669-.091,2.5-.009.339.173.583.473.59C4197.015,866.111,4197.729,866.1,4198.455,866.1Zm.986-1.554c0,.387-.024.764.014,1.136a.588.588,0,0,0,.28.356.846.846,0,0,0,.419.064q10.075,0,20.151,0a2.294,2.294,0,0,0,.241,0,.487.487,0,0,0,.465-.417c.021-.374.006-.75.006-1.136Zm-1.033-13.912c0,.224-.006.417,0,.61a2.533,2.533,0,0,0,.917,1.891,1.215,1.215,0,0,0,.358.181q.434.17.876.323a1.413,1.413,0,0,0,.432.11,2.527,2.527,0,0,0,2.476-2.059,8.954,8.954,0,0,0,.062-1.607,2.558,2.558,0,0,0-4.933-.885A3.424,3.424,0,0,0,4198.408,850.634Zm23.641.122c0-.258,0-.442,0-.627a2.591,2.591,0,0,0-2.3-2.524,2.531,2.531,0,0,0-2.769,2.129,7.656,7.656,0,0,0-.04,1.656,2.57,2.57,0,0,0,1.871,2.27,1.435,1.435,0,0,0,1.272-.106,1.107,1.107,0,0,1,.469-.177,1.554,1.554,0,0,0,1.093-.824A2.791,2.791,0,0,0,4222.049,850.756Z" transform="translate(0 -203.025)" fill="#ee2c3c"/>
    <path id="Path_2719" data-name="Path 2719" d="M4318.2,642.014c-.589.436-1.153.86-1.725,1.273a1.122,1.122,0,0,1-1.792-.629,3.689,3.689,0,0,1-.035-.888c.01-.234-.067-.309-.3-.3a5.985,5.985,0,0,1-.891-.015,1.507,1.507,0,0,1-1.384-1.524c-.01-.867,0-1.735,0-2.6,0-.819,0-1.639,0-2.458a1.539,1.539,0,0,1,1.635-1.628q4.025,0,8.049,0a1.546,1.546,0,0,1,1.632,1.634c0,.421,0,.421.425.421q2.024,0,4.048,0a1.556,1.556,0,0,1,1.7,1.69q0,2.434,0,4.868a1.557,1.557,0,0,1-1.665,1.677c-.233,0-.466.006-.7,0-.153-.005-.218.047-.213.207.008.257.006.514-.008.771a1.079,1.079,0,0,1-.654.966,1.055,1.055,0,0,1-1.137-.117c-.764-.56-1.521-1.129-2.291-1.682a.776.776,0,0,0-.417-.136c-.819-.013-1.638-.006-2.458-.006a1.572,1.572,0,0,1-1.776-1.421A.876.876,0,0,0,4318.2,642.014Zm-.46-7.741q-2,0-4,0c-.448,0-.637.184-.638.623q0,2.469,0,4.939c0,.421.18.6.6.608.458.005.916,0,1.373,0a.529.529,0,0,1,.6.6c.006.377,0,.755,0,1.132a1.636,1.636,0,0,0,.058.294,1.5,1.5,0,0,0,.291-.13c.772-.563,1.533-1.141,2.312-1.693a1.09,1.09,0,0,1,.572-.192c.931-.02,1.863-.007,2.794-.01.478,0,.653-.176.654-.656q0-2.421,0-4.842c0-.5-.178-.672-.689-.672Zm10.79,5.145c0-.835,0-1.671,0-2.506a.521.521,0,0,0-.564-.578c-1.462,0-2.924,0-4.386,0-.15,0-.2.057-.193.2.006.345,0,.691,0,1.036,0,.313,0,.313.315.313.908,0,1.816,0,2.723,0a.5.5,0,0,1,.549.555.508.508,0,0,1-.565.471c-.748.005-1.495,0-2.242,0-.247,0-.494.018-.741.027-.013.261-.022.523-.042.783-.012.168.052.223.221.22.563-.009,1.125,0,1.687,0a1.449,1.449,0,0,1,.241.01.512.512,0,0,1-.12,1.014c-.739.005-1.478,0-2.217,0a.424.424,0,0,0-.267.063,1.808,1.808,0,0,1-1.378.453c-.682-.011-1.365-.006-2.048,0-.077,0-.2.054-.221.11a.645.645,0,0,0,.677.911c.891,0,1.783.008,2.675,0a1.121,1.121,0,0,1,.733.239c.761.577,1.534,1.14,2.3,1.7a.9.9,0,0,0,.213.085.86.86,0,0,0,.063-.217c.006-.385,0-.771,0-1.157,0-.46.186-.647.639-.65.4,0,.8,0,1.205,0,.575,0,.735-.158.735-.725Q4328.533,640.6,4328.532,639.417Z" transform="translate(-111.615 0)" fill="#ee2c3c"/>
    <path id="Path_2720" data-name="Path 2720" d="M4368.646,686.607h2.386a1.833,1.833,0,0,1,.288.015.5.5,0,0,1,.106.962.978.978,0,0,1-.33.053q-2.446,0-4.894,0c-.355,0-.568-.146-.619-.415a.5.5,0,0,1,.53-.613c.563-.01,1.125,0,1.688,0Z" transform="translate(-162.538 -50.787)" fill="#ee2c3c"/>
    <path id="Path_2721" data-name="Path 2721" d="M4368.1,729.269c.643,0,1.285,0,1.927,0,.394,0,.627.19.631.505s-.233.522-.618.522q-1.962,0-3.925,0a.524.524,0,0,1-.567-.355.463.463,0,0,1,.174-.556.812.812,0,0,1,.4-.111C4366.781,729.263,4367.439,729.269,4368.1,729.269Z" transform="translate(-162.486 -91.392)" fill="#ee2c3c"/>
  </g>
</svg>
