<svg xmlns="http://www.w3.org/2000/svg" width="27.876" height="27.876" viewBox="0 0 27.876 27.876">
  <g id="Group_2215" data-name="Group 2215" transform="translate(-2948.911 -669.928)">
    <path id="Path_2713" data-name="Path 2713" d="M2959.9,823.624c-.012.131-.026.206-.026.282q0,6.467-.006,12.933c0,.232.106.235.277.235q5.4,0,10.8,0a1.521,1.521,0,0,1,.388.036.678.678,0,0,1,.5.764.7.7,0,0,1-.661.611c-.051,0-.1,0-.153,0q-10.634,0-21.269,0a1.187,1.187,0,0,1-.323-.03.7.7,0,0,1,.179-1.377c.435-.013.871,0,1.306,0,.312,0,.625-.014.936,0,.21.012.253-.068.251-.26-.009-.936,0-1.873,0-2.809v-3.855c-.262.044-.495.1-.73.119a2.277,2.277,0,0,1-2.449-2.264q-.014-2.994,0-5.988a3.892,3.892,0,0,1,3.449-3.742c.065-.006.13-.011.195-.019a2.033,2.033,0,0,1,1.944.588,5.592,5.592,0,0,0,.7.589,1.167,1.167,0,0,0,1.571,0c.393-.322.774-.659,1.176-.969a.946.946,0,0,1,.486-.209,5.919,5.919,0,0,1,2.134.189,4.282,4.282,0,0,1,1.692.994c.433.418.851.854,1.286,1.27a.517.517,0,0,0,.318.132c.682.012,1.365-.01,2.046.013a3.89,3.89,0,0,1,.913.163.271.271,0,0,0,.332-.092q1.328-1.5,2.664-2.991c.174-.195.346-.391.522-.584a.717.717,0,1,1,1.059.936q-1.23,1.383-2.463,2.762c-.261.292-.527.58-.778.881a.3.3,0,0,0-.057.258,2.3,2.3,0,0,1-2.128,3.259q-1.611.006-3.222,0a2.333,2.333,0,0,1-1.728-.746c-.3-.307-.6-.607-.908-.908C2960.066,823.743,2960,823.7,2959.9,823.624Zm-4.624,13.444v-.307q0-4.072,0-8.145c0-.094,0-.189.005-.283a.706.706,0,0,1,.6-.629.681.681,0,0,1,.757.453,1.411,1.411,0,0,1,.054.428q0,4.094,0,8.188v.3c.487,0,.943,0,1.4,0,.412,0,.364.046.364-.356q0-6.457,0-12.914a1.489,1.489,0,0,1,2.594-1.068c.314.312.635.618.937.941a1.133,1.133,0,0,0,.893.367c.994-.009,1.989,0,2.983,0a1.614,1.614,0,0,0,.346-.03.869.869,0,0,0,.551-1.3.925.925,0,0,0-.827-.437c-.82,0-1.64,0-2.46,0a.868.868,0,0,1-.66-.275c-.4-.41-.827-.8-1.212-1.22a3.2,3.2,0,0,0-2.72-1.1.6.6,0,0,0-.311.115c-.3.231-.581.482-.873.721a2.591,2.591,0,0,1-3.429,0c-.291-.24-.578-.485-.872-.722a.472.472,0,0,0-.227-.11,2.507,2.507,0,0,0-2.839,2.549c-.007,1.895,0,3.789,0,5.684,0,.044,0,.087,0,.131a.879.879,0,0,0,.891.834.844.844,0,0,0,.854-.856c.007-.225.019-.449.019-.674,0-1.4,0-2.8,0-4.2a1.708,1.708,0,0,1,.031-.367.7.7,0,0,1,1.343-.033,1.654,1.654,0,0,1,.035.41q0,2.71,0,5.42v8.166a.516.516,0,0,0,.006.194c.025.057.091.136.14.136C2954.185,837.072,2954.714,837.068,2955.281,837.068Z" transform="translate(0 -140.682)" fill="#ee2c3c"/>
    <path id="Path_2714" data-name="Path 2714" d="M3222.808,679.353q0,3.5,0,6.99a2.127,2.127,0,0,1-2.238,2.247q-6.205,0-12.411,0a.736.736,0,0,1-.825-.553.694.694,0,0,1,.614-.856c.1-.01.2-.007.3-.007h12.192a2.585,2.585,0,0,0,.3-.009.7.7,0,0,0,.64-.681c0-.058,0-.116,0-.174q0-6.969,0-13.937c0-.591-.26-.853-.847-.853h-13.477a2.632,2.632,0,0,1-.326-.012.7.7,0,0,1-.107-1.367,1.29,1.29,0,0,1,.343-.041q6.793,0,13.586,0a2.129,2.129,0,0,1,2.214,1.789,2.456,2.456,0,0,1,.028.455Q3222.809,675.847,3222.808,679.353Z" transform="translate(-246.021 -0.16)" fill="#ee2c3c"/>
    <path id="Path_2715" data-name="Path 2715" d="M3036.375,669.929a3.416,3.416,0,1,1-3.414,3.446A3.424,3.424,0,0,1,3036.375,669.929Zm.007,1.416a2,2,0,1,0,2,2.017A2.006,2.006,0,0,0,3036.382,671.345Z" transform="translate(-80.39 0)" fill="#ee2c3c"/>
    <path id="Path_2716" data-name="Path 2716" d="M3275.326,743.649c1.212,0,2.423,0,3.635,0a.7.7,0,0,1,.681.971.686.686,0,0,1-.6.434,1.836,1.836,0,0,1-.2,0c-2.344,0-4.687,0-7.031-.005a1.172,1.172,0,0,1-.536-.129.662.662,0,0,1-.284-.76.686.686,0,0,1,.654-.513c.522-.009,1.045,0,1.567,0Z" transform="translate(-308.033 -70.509)" fill="#ee2c3c"/>
    <path id="Path_2717" data-name="Path 2717" d="M3273.474,818.357c-.58,0-1.16,0-1.74,0a.716.716,0,0,1-.759-.524.7.7,0,0,1,.738-.886c1.015-.006,2.03,0,3.045,0,.217,0,.436-.008.652.014a.68.68,0,0,1,.606.616.687.687,0,0,1-.439.725,1.283,1.283,0,0,1-.406.056C3274.605,818.361,3274.04,818.357,3273.474,818.357Z" transform="translate(-308.017 -140.612)" fill="#ee2c3c"/>
  </g>
</svg>
