<svg xmlns="http://www.w3.org/2000/svg" width="184" height="24" viewBox="0 0 184 24">
  <g id="Group_2164" data-name="Group 2164" transform="translate(-428 -632)">
    <g id="Component_330_1" data-name="Component 330 – 1" transform="translate(428 632)">
      <text id="Request_a_Demo" data-name="Request a Demo" transform="translate(0 19)" fill="#ee2c3c" font-size="20" font-family="AvenirLTPro-Heavy, Avenir LT Pro" font-weight="800"><tspan x="0" y="0">Request a Demo</tspan></text>
    </g>
    <g id="Group_1544" data-name="Group 1544" transform="translate(-35 -62)">
      <rect id="Rectangle_351" data-name="Rectangle 351" width="24" height="24" transform="translate(623 694)" fill="none"/>
      <g id="Group_1543" data-name="Group 1543" transform="translate(322.058 416.344)">
        <path id="Path_2225" data-name="Path 2225" d="M319.086,289.382q.4-.4.8-.8a1.05,1.05,0,0,1,1.68-.012q.728.722,1.45,1.45a1.026,1.026,0,0,1,0,1.592q-3.5,3.454-7.008,6.9a1.5,1.5,0,0,1-.46.3c-.917.384-1.841.753-2.762,1.128a.945.945,0,0,1-1.246-1.193c.364-.954.732-1.906,1.114-2.853a1.413,1.413,0,0,1,.32-.448q2.406-2.394,4.824-4.775a.531.531,0,0,0,.173-.417q-.008-2.956,0-5.913v-.256c-.1,0-.173-.01-.25-.01H315.3c-.518,0-.684-.165-.684-.676q0-1.135,0-2.27v-.24H306c-.646,0-.885.242-.885.892q0,7.346,0,14.692a1.179,1.179,0,0,0,.065.447.7.7,0,0,0,.723.422c1.214,0,2.429,0,3.643,0a2.071,2.071,0,0,1,.239.008.508.508,0,0,1,.467.633.469.469,0,0,1-.4.41,1.435,1.435,0,0,1-.257.018q-1.832,0-3.663,0a1.77,1.77,0,0,1-1.876-1.87q0-7.426,0-14.852a1.766,1.766,0,0,1,1.858-1.867q4.559,0,9.119,0a.769.769,0,0,1,.568.233q1.58,1.516,3.171,3.02a.789.789,0,0,1,.263.616q-.006,2.717,0,5.435v.234Zm-5.03,6.546,1.482,1.534,6.741-6.74-1.534-1.483Zm-.6.889-.794,2.012,1.96-.8Zm3.653-13.811.016-.051-1.389-1.329-.05.031c0,.41,0,.82.007,1.229,0,.041.1.112.152.114.285.012.57.006.856.006Z" fill="#ee2c3c"/>
        <path id="Path_2226" data-name="Path 2226" d="M397.373,457.24c1.114,0,2.228,0,3.342,0a.516.516,0,0,1,.579.61.473.473,0,0,1-.4.434,1.772,1.772,0,0,1-.3.021q-3.223,0-6.445,0a1.5,1.5,0,0,1-.316-.026.518.518,0,0,1-.394-.51.486.486,0,0,1,.391-.505,1.274,1.274,0,0,1,.276-.022Q395.742,457.239,397.373,457.24Z" transform="translate(-85.831 -170.358)" fill="#ee2c3c"/>
        <path id="Path_2227" data-name="Path 2227" d="M397.365,538.323h-3.2a1.686,1.686,0,0,1-.277-.017.52.52,0,0,1-.441-.531.5.5,0,0,1,.459-.511,1.177,1.177,0,0,1,.159-.007q3.312,0,6.624,0c.424,0,.642.22.608.6a.475.475,0,0,1-.41.445,1.907,1.907,0,0,1-.3.019Z" transform="translate(-85.831 -247.188)" fill="#ee2c3c"/>
        <path id="Path_2228" data-name="Path 2228" d="M396,615.922c.663,0,1.326,0,1.989,0a.529.529,0,0,1,.093,1.053,1.855,1.855,0,0,1-.2.008c-1.253,0-2.506,0-3.759,0a.923.923,0,0,1-.446-.121.488.488,0,0,1-.2-.576.48.48,0,0,1,.473-.356c.232-.011.464,0,.7,0H396Z" transform="translate(-85.842 -322.72)" fill="#ee2c3c"/>
      </g>
    </g>
  </g>
</svg>
