<svg xmlns="http://www.w3.org/2000/svg" width="72" height="72" viewBox="0 0 72 72">
  <g id="Group_2479" data-name="Group 2479" transform="translate(-37.916 -225)">
    <path id="Path_2840" data-name="Path 2840" d="M16,0H56A16,16,0,0,1,72,16V56A16,16,0,0,1,56,72H16A16,16,0,0,1,0,56V16A16,16,0,0,1,16,0Z" transform="translate(37.916 225)" fill="#fde8ea"/>
    <g id="Group_2353" data-name="Group 2353">
      <path id="Path_2758" data-name="Path 2758" d="M351.917,300.053h19.9c1,0,1.526.4,1.527,1.16s-.523,1.162-1.521,1.169c-.942.007-.854-.111-.854.842q0,11.21,0,22.42c0,.649,0,.648.664.651a4.936,4.936,0,0,1,.7.024,1.14,1.14,0,0,1,1.013,1.195,1.1,1.1,0,0,1-1.052,1.1c-.836.052-1.676.058-2.515.057q-5.709-.007-11.419-.031a4.607,4.607,0,0,1-.651-.03,1.152,1.152,0,0,1-.065-2.276,3.319,3.319,0,0,1,.649-.041q4.871,0,9.742,0c.6,0,.606,0,.606-.623q0-11.326,0-22.653c0-.635,0-.636-.649-.636H335.784c-.6,0-.6,0-.6.621q0,3.682,0,7.365a2.914,2.914,0,0,1-.063.692,1.149,1.149,0,0,1-2.248-.12,4.137,4.137,0,0,1-.03-.6c0-2.455-.013-4.91.009-7.364,0-.48-.147-.648-.613-.6a3.381,3.381,0,0,1-.744-.014,1.126,1.126,0,0,1-1.031-1.128,1.147,1.147,0,0,1,1.044-1.168,5.049,5.049,0,0,1,.559-.012Z" transform="translate(-277.139 -59.051)" fill="#424143"/>
      <path id="Path_2759" data-name="Path 2759" d="M321.11,497.765c.558-.662,1.047-1.24,1.533-1.821q6.55-7.823,13.109-15.638a2.129,2.129,0,0,1,.968-.646.989.989,0,0,1,1.139.533,1.064,1.064,0,0,1-.086,1.3c-.723.893-1.464,1.771-2.2,2.653q-7,8.359-13.992,16.722a1.188,1.188,0,0,0-.214.586c-.043.321,0,.655-.049.974a1.133,1.133,0,0,1-1.19.962,1.1,1.1,0,0,1-1.087-1.02A17.013,17.013,0,0,1,319,500.28a5.99,5.99,0,1,0-11.958-.716c-.03.869,0,1.74-.021,2.609a1.157,1.157,0,0,1-1.554,1.15.98.98,0,0,1-.735-.879,13.322,13.322,0,0,1,.6-5.831,8.334,8.334,0,0,1,15.573.55C320.96,497.323,321.015,497.482,321.11,497.765Z" transform="translate(-253.768 -221.879)" fill="#ee2c3c"/>
      <path id="Path_2760" data-name="Path 2760" d="M341.007,459.676a6.085,6.085,0,1,1-6.153-6.045A6.088,6.088,0,0,1,341.007,459.676Zm-2.349.04a3.746,3.746,0,1,0-3.709,3.754A3.752,3.752,0,0,0,338.657,459.716Z" transform="translate(-275.668 -198.313)" fill="#ee2c3c"/>
      <path id="Path_2761" data-name="Path 2761" d="M469.22,427.988q4.521,0,9.042,0a4.247,4.247,0,0,1,.65.033,1.151,1.151,0,0,1,.106,2.254,2.277,2.277,0,0,1-.553.059q-9.275,0-18.55,0a2.315,2.315,0,0,1-.642-.08,1.151,1.151,0,0,1,.116-2.22,3.853,3.853,0,0,1,.7-.045Q464.653,427.985,469.22,427.988Z" transform="translate(-393.223 -175.059)" fill="#424143"/>
      <path id="Path_2762" data-name="Path 2762" d="M517.982,379.072c-2.266,0-4.532,0-6.8,0a2.5,2.5,0,0,1-.732-.1,1.151,1.151,0,0,1,.159-2.217,3.675,3.675,0,0,1,.648-.047q6.729,0,13.457,0a3.762,3.762,0,0,1,.648.043,1.151,1.151,0,0,1,.149,2.229,2.632,2.632,0,0,1-.733.088Q521.381,379.077,517.982,379.072Z" transform="translate(-439.648 -128.559)" fill="#424143"/>
    </g>
  </g>
</svg>
