<svg id="Component_82_2" data-name="Component 82 – 2" xmlns="http://www.w3.org/2000/svg" width="46" height="46" viewBox="0 0 46 46">
  <rect id="Rectangle_378" data-name="Rectangle 378" width="46" height="46" fill="none"/>
  <g id="Group_1609" data-name="Group 1609" transform="translate(-1436.969 -105.909)">
    <path id="Path_2230" data-name="Path 2230" d="M1459.635,111.911q6.931,0,13.862,0a3.674,3.674,0,0,1,3.687,2.832,3.747,3.747,0,0,1,.106.9q.009,9.212,0,18.424a3.664,3.664,0,0,1-2.8,3.627,3.9,3.9,0,0,1-.989.114q-13.877.009-27.754,0a3.685,3.685,0,0,1-3.781-3.778q-.007-9.168,0-18.335a3.687,3.687,0,0,1,3.8-3.787Q1452.7,111.906,1459.635,111.911Zm.011,2.356h-13.861a1.348,1.348,0,0,0-1.457,1.444q0,9.152,0,18.3a1.735,1.735,0,0,0,.031.38,1.357,1.357,0,0,0,1.457,1.063h27.575a1.377,1.377,0,0,0,1.547-1.563q0-9.034,0-18.069a1.376,1.376,0,0,0-1.549-1.56Z" fill="#ee2c3c"/>
    <path id="Path_2231" data-name="Path 2231" d="M1472.67,577.273c-.716,0-1.432.005-2.148,0a.282.282,0,0,0-.317.218,4.08,4.08,0,0,1-7.687.026c-.09-.241-.228-.243-.422-.243q-9.387,0-18.773,0a1.2,1.2,0,0,1-1.245-.832,1.175,1.175,0,0,1,1.039-1.52c.127-.008.255,0,.382,0q9.284,0,18.567.007a.429.429,0,0,0,.481-.334,4.081,4.081,0,0,1,7.646.074.331.331,0,0,0,.379.256q2.118-.011,4.237,0a1.18,1.18,0,0,1,1.122.877,1.14,1.14,0,0,1-.532,1.292,1.528,1.528,0,0,1-.668.176C1474.044,577.287,1473.357,577.273,1472.67,577.273Zm-6.307-2.941a1.763,1.763,0,1,0,1.757,1.792A1.771,1.771,0,0,0,1466.363,574.332Z" transform="translate(-0.051 -432.983)" fill="#ee2c3c"/>
    <path id="Path_2232" data-name="Path 2232" d="M1661.972,219c0-1.912,0-3.825,0-5.737a1.22,1.22,0,0,1,.619-1.181,1.2,1.2,0,0,1,1.3.1q4.6,2.88,9.2,5.753a1.178,1.178,0,0,1,.005,2.12q-4.621,2.9-9.252,5.784a1.163,1.163,0,0,1-1.252.077,1.176,1.176,0,0,1-.623-1.119Q1661.976,221.893,1661.972,219Zm8.375,0-6-3.757v7.515Z" transform="translate(-207.049 -94.13)" fill="#ee2c3c"/>
  </g>
</svg>
