<svg xmlns="http://www.w3.org/2000/svg" xmlns:xlink="http://www.w3.org/1999/xlink" width="158.365" height="10.221" viewBox="0 0 158.365 10.221">
  <defs>
    <clipPath id="clip-path">
      <rect id="Rectangle_364" data-name="Rectangle 364" width="158.365" height="10.221" fill="#424143"/>
    </clipPath>
  </defs>
  <g id="Frame_3_" data-name="Frame (3)" clip-path="url(#clip-path)">
    <path id="Path_2232" data-name="Path 2232" d="M34.467,2.082Q57.032,1.633,79.612,1.5c15.051-.086,29.963-.057,44.94.078q12.763.118,25.534.328L151.241.449Q122.1.888,92.985,1.54T34.737,3.065q-16.349.492-32.69,1.041A2.578,2.578,0,0,0,.09,4.811c-.336.506.287.77.8.756q30.352-.674,60.729-.121T122.293,7.8q17.026,1,34.017,2.409a2.489,2.489,0,0,0,1.957-.706c.361-.535-.311-.72-.8-.756Q127.235,6.262,96.891,5,66.564,3.735,36.178,3.728q-17.061,0-34.123.378L.9,5.567Q30.012,4.573,59.14,3.8t58.247-1.333q16.35-.31,32.707-.563a2.541,2.541,0,0,0,1.957-.706c.353-.535-.295-.748-.8-.756Q128.661.079,106.1.015C91.044-.021,76.132.043,61.155.221Q48.392.371,35.622.628a2.567,2.567,0,0,0-1.957.706c-.336.506.287.77.8.756Z" transform="translate(0 1.39)" fill="#424143"/>
  </g>
</svg>
