<svg xmlns="http://www.w3.org/2000/svg" xmlns:xlink="http://www.w3.org/1999/xlink" width="352.418" height="33.139" viewBox="0 0 352.418 33.139">
  <defs>
    <clipPath id="clip-path">
      <rect id="Rectangle_212" data-name="Rectangle 212" width="352" height="27" transform="translate(-102 -5)" fill="#da5764"/>
    </clipPath>
  </defs>
  <g id="Frame_9_" data-name="Frame (9)" transform="matrix(1, -0.017, 0.017, 1, 102.072, 9.362)" clip-path="url(#clip-path)">
    <path id="Path_503" data-name="Path 503" d="M-96.748.041,68.84,2.176l36.64-.031c6.937,0,13.874-.02,20.818-.01L127.252,0q-24.6,1.2-49.185,2.918T28.935,6.853Q15.155,8.1,1.389,9.5A1.665,1.665,0,0,0,.033,10.635a.718.718,0,0,0,.708.966l166.606-.62q24.466.885,48.931,1.759,13.811.5,27.627.986l.961-2.135c-5.782.305-28.117,3.988-33.906,4.293a1.732,1.732,0,0,0-1.609,1.017.734.734,0,0,0,.661,1.1c5.782-.295,28.111-3.967,33.893-4.262a1.766,1.766,0,0,0,1.635-1.027.733.733,0,0,0-.674-1.108q-24.465-.9-48.931-1.759T147,8.093L1.7,9.476l-.648,2.1Q25.45,9.095,49.873,7.1,74.278,5.114,98.7,3.64q13.79-.839,27.58-1.5a1.768,1.768,0,0,0,1.636-1.027c.3-.783-.24-1.108-.668-1.108Q108.846.046,90.445.041L53.805.071l-149.6-2.145a1.73,1.73,0,0,0-1.616,1.017A.73.73,0,0,0-96.748.041Z" fill="#da5764"/>
  </g>
</svg>
