<svg xmlns="http://www.w3.org/2000/svg" xmlns:xlink="http://www.w3.org/1999/xlink" width="265.095" height="14.699" viewBox="0 0 265.095 14.699">
  <defs>
    <clipPath id="clip-path">
      <rect id="Rectangle_290" data-name="Rectangle 290" width="265.095" height="14.699" fill="#424143"/>
    </clipPath>
  </defs>
  <g id="Frame_3_" data-name="Frame (3)" clip-path="url(#clip-path)">
    <path id="Path_513" data-name="Path 513" d="M57.7,2.991q37.772-.646,75.571-.83c25.195-.123,50.157-.082,75.228.113q21.365.169,42.742.472l1.932-2.1q-48.772.63-97.517,1.568t-97.5,2.194Q30.784,5.113,3.43,5.9C2.361,5.933.757,6.138.154,6.917-.408,7.645.634,8.024,1.5,8q50.808-.969,101.657-.174,50.828.8,101.56,3.393,28.5,1.445,56.942,3.465a4.58,4.58,0,0,0,3.276-1.015c.6-.769-.52-1.035-1.342-1.087q-50.6-3.582-101.4-5.4Q111.427,5.369,60.564,5.359,32,5.359,3.444,5.9L1.511,8Q50.242,6.574,99,5.462t97.5-1.917q27.37-.446,54.75-.81c1.069-.01,2.686-.246,3.276-1.015S254.036.644,253.185.634Q215.374.111,177.6.019c-25.2-.051-50.157.041-75.229.3Q81.009.531,59.632.9c-1.069.021-2.687.246-3.276,1.015-.562.728.48,1.107,1.343,1.087Z" transform="translate(-0.003 0.002)" fill="#424143"/>
  </g>
</svg>
