<svg xmlns="http://www.w3.org/2000/svg" width="22.479" height="16.484" viewBox="0 0 22.479 16.484">
  <path id="Path_2230" data-name="Path 2230" d="M1453.21,111.91q4.41,0,8.821,0a2.338,2.338,0,0,1,2.346,1.8,2.387,2.387,0,0,1,.067.574q.006,5.862,0,11.723a2.332,2.332,0,0,1-1.779,2.308,2.485,2.485,0,0,1-.629.073q-8.83.006-17.66,0a2.345,2.345,0,0,1-2.406-2.4q0-5.833,0-11.667a2.346,2.346,0,0,1,2.418-2.41Q1448.8,111.907,1453.21,111.91Zm.007,1.5h-8.82a.857.857,0,0,0-.927.919q0,5.824,0,11.647a1.107,1.107,0,0,0,.02.242.864.864,0,0,0,.927.676h17.546a.876.876,0,0,0,.984-.994q0-5.749,0-11.5a.876.876,0,0,0-.986-.992Z" transform="translate(-1441.969 -111.91)" fill="#fff"/>
</svg>
