<svg xmlns="http://www.w3.org/2000/svg" width="19.299" height="18.726" viewBox="0 0 19.299 18.726">
  <path id="person_FILL0_wght400_GRAD0_opsz48" d="M255.7,284.32a4.338,4.338,0,1,1,3.257-1.266A4.408,4.408,0,0,1,255.7,284.32ZM246.055,294v-2.835a3.318,3.318,0,0,1,.573-1.96,3.678,3.678,0,0,1,1.478-1.236,22.663,22.663,0,0,1,3.875-1.357,15.664,15.664,0,0,1,3.724-.452,15.006,15.006,0,0,1,3.709.467,25.687,25.687,0,0,1,3.86,1.342,3.635,3.635,0,0,1,1.508,1.236,3.319,3.319,0,0,1,.573,1.96V294Zm1.809-1.809h15.68v-1.025a1.652,1.652,0,0,0-.286-.92,1.816,1.816,0,0,0-.709-.648,16.011,16.011,0,0,0-3.528-1.282,15.6,15.6,0,0,0-3.317-.347,16.024,16.024,0,0,0-3.347.347,15.315,15.315,0,0,0-3.528,1.282,1.814,1.814,0,0,0-.965,1.568Zm7.84-9.68a2.63,2.63,0,1,0-1.945-.769A2.636,2.636,0,0,0,255.7,282.511Zm0-2.714Zm0,12.393Z" transform="translate(-246.055 -275.274)" fill="#ee2c3c"/>
</svg>
