<svg xmlns="http://www.w3.org/2000/svg" width="17.162" height="19.068" viewBox="0 0 17.162 19.068">
  <path id="calendar_month_FILL0_wght400_GRAD0_opsz48" d="M14.581,15.441a.936.936,0,1,1,.679-.274A.923.923,0,0,1,14.581,15.441Zm-3.814,0a.936.936,0,1,1,.679-.274A.923.923,0,0,1,10.767,15.441Zm7.627,0a.936.936,0,1,1,.679-.274A.923.923,0,0,1,18.394,15.441Zm-3.814,3.814a.936.936,0,1,1,.679-.274A.923.923,0,0,1,14.581,19.255Zm-3.814,0a.936.936,0,1,1,.679-.274A.923.923,0,0,1,10.767,19.255Zm7.627,0a.936.936,0,1,1,.679-.274A.923.923,0,0,1,18.394,19.255ZM7.43,23.068A1.466,1.466,0,0,1,6,21.638V6.86A1.466,1.466,0,0,1,7.43,5.43H8.979V4h1.549V5.43h8.1V4h1.549V5.43h1.549a1.466,1.466,0,0,1,1.43,1.43V21.638a1.466,1.466,0,0,1-1.43,1.43Zm0-1.43h14.3V11.389H7.43V21.638Zm0-11.679h14.3V6.86H7.43Zm0,0V6.86h0Z" transform="translate(-6 -4)" fill="#ee2c3c"/>
</svg>
