<svg id="Group_61" data-name="Group 61" xmlns="http://www.w3.org/2000/svg" width="29.896" height="29.896" viewBox="0 0 29.896 29.896">
  <path id="Path_63" data-name="Path 63" d="M1303.065,762.3q0-5.394,0-10.788a4.077,4.077,0,0,1,3.633-4.141,3.9,3.9,0,0,1,.513-.019q10.8,0,21.6,0a4.068,4.068,0,0,1,4.15,4.157q0,10.788,0,21.577a4.07,4.07,0,0,1-4.169,4.161h-21.553a4.057,4.057,0,0,1-4.172-4.181Q1303.064,767.686,1303.065,762.3Zm15.975-1.721-.054-.017c0-.247,0-.495,0-.742,0-.484-.216-.693-.7-.694q-1.238,0-2.475,0c-.583,0-.773.187-.773.764q0,5.488,0,10.976c0,.07,0,.14,0,.21a.573.573,0,0,0,.574.562q1.389.011,2.779,0a.559.559,0,0,0,.575-.531,2.725,2.725,0,0,0,.01-.3c0-1.884-.006-3.768,0-5.651a3.433,3.433,0,0,1,.606-2.026,1.923,1.923,0,0,1,2-.766,1.638,1.638,0,0,1,1.417,1.226,5.685,5.685,0,0,1,.237,1.488c.026,1.953.009,3.907.01,5.861,0,.486.215.7.7.7q1.331,0,2.662,0a.607.607,0,0,0,.688-.691c0-2.063.006-4.126-.012-6.188a9.869,9.869,0,0,0-.4-2.927,3.745,3.745,0,0,0-2.726-2.719,6.13,6.13,0,0,0-2.982,0,3.457,3.457,0,0,0-2.023,1.335C1319.121,760.494,1319.079,760.537,1319.04,760.582Zm-9.727,4.79q0,2.744,0,5.487c0,.56.22.783.772.784h2.405c.532,0,.764-.232.764-.772q0-5.487,0-10.975c0-.541-.229-.771-.764-.773q-1.2,0-2.405,0c-.552,0-.772.226-.773.784Q1309.312,762.64,1309.313,765.372Zm4.51-9.867a2.545,2.545,0,1,0-2.574,2.544A2.54,2.54,0,0,0,1313.823,755.505Z" transform="translate(-1303.065 -747.354)" fill="#fff"/>
</svg>
