<svg xmlns="http://www.w3.org/2000/svg" width="39.437" height="27.678" viewBox="0 0 39.437 27.678">
  <g id="Group_62" data-name="Group 62" transform="translate(0)">
    <path id="Path_64" data-name="Path 64" d="M-147.877,1931.183c3.709.126,7.418.225,11.125.393a28.041,28.041,0,0,1,4.008.452,4.774,4.774,0,0,1,3.965,3.93,34.674,34.674,0,0,1,.658,6.13,61.527,61.527,0,0,1-.188,8.631,23.2,23.2,0,0,1-.631,3.978,4.627,4.627,0,0,1-3.938,3.459,51.878,51.878,0,0,1-7.1.557c-5.79.215-11.581.207-17.368-.09a46.973,46.973,0,0,1-5.417-.537,4.712,4.712,0,0,1-4.018-4.131c-.275-1.737-.458-3.494-.578-5.25a56.159,56.159,0,0,1,.082-8.6,35.991,35.991,0,0,1,.557-4.193,4.958,4.958,0,0,1,4.511-4.035,108.058,108.058,0,0,1,11.6-.59c.908-.015,1.817,0,2.726,0Zm6.442,13.874-10.23-5.892v11.785Z" transform="translate(167.486 -1931.183)" fill="#fff"/>
  </g>
</svg>
