<svg xmlns="http://www.w3.org/2000/svg" width="30.207" height="24.678" viewBox="0 0 30.207 24.678">
  <path id="Path_62" data-name="Path 62" d="M2104.693,223.816a12.5,12.5,0,0,0,9.028-2.551,6.541,6.541,0,0,1-3.5-1.281,6.281,6.281,0,0,1-2.209-3.077,6.909,6.909,0,0,0,2.688-.1,6.391,6.391,0,0,1-4.9-6.169c.49.185.912.379,1.354.5a7.488,7.488,0,0,0,1.369.215,6.511,6.511,0,0,1-2.483-3.783,6.185,6.185,0,0,1,.687-4.5,17.747,17.747,0,0,0,12.808,6.5c-.038-.414-.086-.794-.1-1.176a6.181,6.181,0,0,1,4.392-6.2,6.076,6.076,0,0,1,6.145,1.488.458.458,0,0,0,.474.146,12.764,12.764,0,0,0,3.379-1.28.813.813,0,0,1,.249-.1,5.979,5.979,0,0,1-2.515,3.275l.015.061c.278-.045.558-.082.833-.137s.556-.121.83-.2.56-.168.836-.264a7.654,7.654,0,0,1,.833-.268c-.038.06-.072.122-.113.18a12.006,12.006,0,0,1-2.693,2.782.517.517,0,0,0-.228.5,17.413,17.413,0,0,1-1.213,6.911,17.943,17.943,0,0,1-4.378,6.607,16.568,16.568,0,0,1-7.607,4.16,18.45,18.45,0,0,1-5.908.475,17.386,17.386,0,0,1-7.9-2.586C2104.819,223.924,2104.782,223.887,2104.693,223.816Z" transform="translate(-2104.693 -201.918)" fill="#fff"/>
</svg>
