<svg xmlns="http://www.w3.org/2000/svg" width="29.752" height="29.896" viewBox="0 0 29.752 29.896">
  <g id="Group_63" data-name="Group 63" transform="translate(0)">
    <path id="Path_65" data-name="Path 65" d="M1477.486,1918.464c-1.646-.04-3.854-.068-6.058-.157a8.952,8.952,0,0,1-4.288-1.2,7.654,7.654,0,0,1-3.556-4.768,14.374,14.374,0,0,1-.419-3.742q-.013-5.385.026-10.77a11.19,11.19,0,0,1,.628-3.869,7.633,7.633,0,0,1,5.667-4.969,12.728,12.728,0,0,1,2.748-.332c4.126-.1,8.252-.153,12.377.05a9.218,9.218,0,0,1,4.254,1.163,7.623,7.623,0,0,1,3.631,4.817,13.647,13.647,0,0,1,.41,3.509q.011,5.188,0,10.375a13.205,13.205,0,0,1-.541,4.167,7.6,7.6,0,0,1-6,5.328,16.231,16.231,0,0,1-2.8.3C1481.731,1918.426,1479.889,1918.427,1477.486,1918.464Zm.564-2.693v-.036c1.236,0,2.472.021,3.707-.006a21.5,21.5,0,0,0,4.041-.274,5.035,5.035,0,0,0,4.091-3.783,10.055,10.055,0,0,0,.322-2.7c.014-3.621.019-7.242,0-10.862a12.576,12.576,0,0,0-.223-2.292,4.981,4.981,0,0,0-3.941-4.175,13.92,13.92,0,0,0-3.289-.3q-4.161-.037-8.323-.017a21.545,21.545,0,0,0-4,.243,5.029,5.029,0,0,0-4.222,3.783,12.144,12.144,0,0,0-.346,3.212q-.038,4.382-.022,8.765a20.135,20.135,0,0,0,.249,3.856,5.013,5.013,0,0,0,3.754,4.167,10.772,10.772,0,0,0,2.745.335C1474.414,1915.72,1476.232,1915.742,1478.05,1915.771Z" transform="translate(-1463.162 -1888.568)" fill="#fff"/>
    <path id="Path_66" data-name="Path 66" d="M1625.5,2059.976a7.667,7.667,0,1,1,7.651-7.684A7.676,7.676,0,0,1,1625.5,2059.976Zm-.015-2.7a4.967,4.967,0,1,0-4.966-4.962A4.96,4.96,0,0,0,1625.489,2057.274Z" transform="translate(-1610.61 -2037.364)" fill="#fff"/>
    <path id="Path_67" data-name="Path 67" d="M1918.44,2001.613a1.785,1.785,0,1,1-1.78-1.8A1.778,1.778,0,0,1,1918.44,2001.613Z" transform="translate(-1893.806 -1994.629)" fill="#fff"/>
  </g>
</svg>
