<svg xmlns="http://www.w3.org/2000/svg" width="27.19" height="27.192" viewBox="0 0 27.19 27.192">
  <path id="Path_61" data-name="Path 61" d="M406.72,387.7h-.167c-2.612,0-5.224.006-7.836,0a3.931,3.931,0,0,1-3.778-2.76,4.2,4.2,0,0,1-.2-1.249q-.018-9.579-.007-19.158a3.99,3.99,0,0,1,3.591-4.005,4.312,4.312,0,0,1,.488-.015q9.514,0,19.028,0a3.945,3.945,0,0,1,3.869,2.753,4.166,4.166,0,0,1,.2,1.249q.018,9.589.006,19.179a3.972,3.972,0,0,1-4.005,4.007c-2.067.008-4.134,0-6.2,0h-.183v-9.6h4.017l.8-4.777h-4.816v-3.247h4.806V365.3c-.084,0-.159-.011-.234-.011-1.494,0-2.987-.01-4.481,0a4.711,4.711,0,0,0-4.263,2.438,4.639,4.639,0,0,0-.619,2.418q0,1.444,0,2.889v.273h-3.172v4.773h3.158Z" transform="translate(-394.732 -360.506)" fill="#fff"/>
</svg>
