<svg xmlns="http://www.w3.org/2000/svg" xmlns:xlink="http://www.w3.org/1999/xlink" width="84.025" height="4.323" viewBox="0 0 84.025 4.323">
  <defs>
    <clipPath id="clip-path">
      <rect id="Rectangle_434" data-name="Rectangle 434" width="84.025" height="4.323" fill="#424143"/>
    </clipPath>
  </defs>
  <g id="Frame_3_" data-name="Frame (3)" clip-path="url(#clip-path)">
    <path id="Path_2728" data-name="Path 2728" d="M18.285.883Q30.257.693,42.238.639C50.224.6,58.136.615,66.083.672q6.772.05,13.548.139l.612-.618Q64.784.378,49.333.654t-30.9.645q-8.674.208-17.345.44a1.585,1.585,0,0,0-1.038.3c-.178.214.152.326.426.32q16.1-.285,32.221-.051t32.191,1q9.033.425,18.048,1.019a1.528,1.528,0,0,0,1.038-.3c.191-.226-.165-.3-.425-.32Q67.506,2.652,51.406,2.116T19.193,1.58q-9.052,0-18.1.16l-.613.618q15.446-.421,30.9-.748t30.9-.564Q70.956.915,79.634.808a1.561,1.561,0,0,0,1.038-.3c.187-.226-.156-.317-.426-.32Q68.262.036,56.29.009C48.3-.006,40.392.021,32.445.1Q25.673.16,18.9.268a1.577,1.577,0,0,0-1.038.3c-.178.214.152.326.426.32Z" transform="translate(0.002 -0.003)" fill="#424143"/>
  </g>
</svg>
