<svg xmlns="http://www.w3.org/2000/svg" width="38.183" height="38.183" viewBox="0 0 38.183 38.183">
  <path id="speaker_notes_FILL0_wght400_GRAD0_opsz48" d="M98.973,94.725h15.321V91.862H98.973Zm0,5.727h15.321V97.589H98.973Zm0,5.727h9.546v-2.864H98.973ZM93.293,95.2a1.875,1.875,0,1,0-1.36-.549A1.847,1.847,0,0,0,93.293,95.2Zm0,5.727a1.875,1.875,0,1,0-1.36-.549A1.847,1.847,0,0,0,93.293,100.93Zm0,5.727a1.875,1.875,0,1,0-1.36-.549A1.847,1.847,0,0,0,93.293,106.657ZM83.7,121.883V86.564a2.774,2.774,0,0,1,.859-1.981,2.712,2.712,0,0,1,2-.883h32.455a3.029,3.029,0,0,1,2.864,2.864v24.819a3.029,3.029,0,0,1-2.864,2.864H91.337Zm2.864-6.921,3.58-3.58h28.876V86.564H86.564Zm0-28.4h0v24.819h0V86.564Z" transform="translate(-83.7 -83.7)" fill="#ee2c3c"/>
</svg>
