<svg xmlns="http://www.w3.org/2000/svg" xmlns:xlink="http://www.w3.org/1999/xlink" width="185.699" height="12.847" viewBox="0 0 185.699 12.847">
  <defs>
    <clipPath id="clip-path">
      <rect id="Rectangle_162" data-name="Rectangle 162" width="185.699" height="12.847" fill="#424143"/>
    </clipPath>
  </defs>
  <g id="Frame_3_" data-name="Frame (3)" clip-path="url(#clip-path)">
    <path id="Path_458" data-name="Path 458" d="M40.417,2.615q26.459-.564,52.937-.726c17.649-.108,35.135-.072,52.7.1q14.966.148,29.941.412L177.346.564q-34.165.551-68.311,1.371t-68.3,1.917Q21.563,4.47,2.4,5.159a2.908,2.908,0,0,0-2.295.887c-.394.636.336.968.941.95q35.591-.847,71.211-.152T143.4,9.809q19.964,1.263,39.888,3.028a2.809,2.809,0,0,0,2.295-.887c.423-.672-.364-.9-.94-.95Q149.2,7.87,113.615,6.279,78.053,4.694,42.424,4.685q-20.006,0-40.013.475L1.057,7q34.136-1.25,68.292-2.222t68.3-1.675q19.173-.39,38.352-.708A2.867,2.867,0,0,0,178.3,1.5c.413-.672-.346-.941-.941-.95Q150.868.1,124.409.017c-17.649-.045-35.135.036-52.7.26Q56.746.465,41.771.787a2.9,2.9,0,0,0-2.295.887c-.394.636.336.968.941.95Z" transform="translate(-0.001 0.001)" fill="#424143"/>
  </g>
</svg>
